<?xml version="1.0" standalone="no"?>
<!DOCTYPE svg PUBLIC "-//W3C//DTD SVG 20010904//EN"
 "http://www.w3.org/TR/2001/REC-SVG-20010904/DTD/svg10.dtd">
<svg version="1.0" xmlns="http://www.w3.org/2000/svg"
 width="432.000000pt" height="432.000000pt" viewBox="0 0 432.000000 432.000000"
 preserveAspectRatio="xMidYMid meet">
<metadata>
Created by potrace 1.11, written by Peter Selinger 2001-2013
</metadata>
<g transform="translate(0.000000,432.000000) scale(0.100000,-0.100000)"
fill="#000000" stroke="none">
<path d="M2180 4310 c-18 -6 -4 -8 45 -9 101 -1 316 -28 415 -52 293 -69 550
-186 795 -360 75 -53 270 -223 305 -266 145 -176 246 -318 303 -428 75 -144
177 -419 198 -537 7 -38 15 -68 18 -68 3 0 6 -10 7 -22 0 -13 7 -63 15 -113
15 -99 19 -409 6 -520 -24 -214 -104 -491 -201 -690 -260 -538 -703 -925
-1281 -1120 -504 -170 -1103 -128 -1590 110 -315 153 -622 411 -819 689 -70
98 -50 91 23 -8 35 -47 83 -103 107 -125 24 -22 44 -44 44 -49 0 -15 36 -43
44 -35 4 5 6 3 4 -2 -6 -21 290 -275 319 -275 7 0 13 -4 13 -9 0 -10 111 -81
127 -81 7 0 13 -4 13 -10 0 -5 9 -10 20 -10 11 0 20 -3 20 -7 0 -5 10 -13 23
-19 184 -94 221 -110 376 -160 71 -23 269 -64 376 -79 79 -11 395 -15 395 -5
0 5 6 7 14 4 20 -8 201 15 246 31 21 7 41 11 43 8 10 -9 235 63 323 103 32 15
66 28 74 30 35 8 228 121 229 135 1 3 -38 -13 -85 -37 -92 -47 -114 -54 -94
-29 7 9 10 18 7 22 -4 3 -9 -2 -13 -11 -3 -9 -11 -13 -18 -9 -6 3 -6 1 2 -8
16 -18 15 -24 -5 -27 -59 -6 -92 -15 -87 -24 4 -6 -2 -8 -15 -3 -12 4 -21 2
-21 -4 0 -6 6 -11 13 -11 8 0 7 -3 -3 -10 -9 -6 -17 -5 -22 3 -5 8 -20 5 -53
-11 -26 -12 -44 -18 -40 -13 7 12 -87 -14 -126 -35 -15 -7 -29 -11 -31 -9 -3
3 -25 1 -51 -4 -31 -5 -50 -5 -58 3 -9 8 -10 8 -6 0 9 -16 -35 -26 -45 -11 -6
9 -8 9 -8 -2 0 -9 -9 -12 -30 -9 -17 3 -33 1 -36 -3 -2 -5 -12 -5 -20 -2 -9 3
-20 0 -25 -8 -6 -9 -9 -10 -9 -2 0 9 -41 12 -157 11 -87 0 -184 3 -217 6 -41
4 -63 3 -75 -6 -14 -12 -14 -11 -2 5 12 16 10 17 -25 17 -38 1 -61 5 -169 31
-27 7 -62 12 -77 12 -16 0 -28 3 -28 7 0 7 -140 45 -156 42 -6 -1 -26 4 -45
12 -19 9 -27 15 -19 16 13 0 13 1 0 10 -20 13 -33 13 -25 0 3 -6 -1 -7 -9 -4
-9 3 -13 11 -9 17 4 6 0 8 -10 4 -10 -3 -17 -3 -17 2 0 5 -20 14 -45 20 -25 6
-53 20 -63 31 -9 11 -25 20 -35 20 -11 0 -15 4 -11 12 5 8 2 9 -12 4 -10 -4
-15 -4 -11 0 11 11 -40 33 -65 27 -16 -3 -19 -2 -10 5 10 7 6 12 -17 22 -17 7
-31 16 -31 21 0 5 -7 6 -15 3 -8 -4 -15 -1 -15 6 0 7 -6 10 -14 7 -7 -3 -25 3
-41 13 -18 12 -23 19 -13 22 7 3 10 9 6 13 -4 4 -14 2 -22 -4 -12 -10 -17 -8
-27 11 -11 21 -11 22 4 9 15 -11 17 -11 17 2 0 16 -16 17 -38 4 -13 -9 -32 -1
-32 13 0 5 8 7 17 4 15 -5 16 -4 3 5 -8 6 -10 11 -5 11 6 0 2 5 -8 11 -10 6
-21 8 -24 5 -4 -3 -1 -6 6 -6 7 0 10 -4 6 -10 -3 -5 -12 -7 -20 -4 -11 5 -12
11 -4 26 6 11 8 22 5 26 -3 3 -6 -1 -6 -8 0 -9 -5 -8 -19 4 -11 10 -23 16 -28
13 -4 -2 -17 -1 -28 4 -19 7 -19 8 3 8 21 1 21 2 -9 29 -17 15 -51 46 -76 70
-24 23 -48 40 -53 37 -17 -10 -34 6 -19 17 11 7 9 8 -5 4 -15 -5 -17 -2 -13
13 3 13 0 18 -7 15 -11 -4 -49 32 -114 110 -12 15 -20 32 -16 38 4 6 3 8 -3 5
-5 -3 -27 21 -49 54 -21 33 -40 55 -42 49 -3 -7 -9 -7 -20 2 -13 11 -14 11 -4
-7 6 -11 18 -29 26 -40 l16 -20 -6 20 c-6 20 -5 20 10 1 18 -23 21 -40 5 -30
-19 11 6 -28 88 -138 456 -612 1242 -950 1990 -853 468 61 919 278 1256 604
205 198 416 524 517 801 133 360 164 778 89 1170 -27 139 -104 370 -167 500
-271 560 -755 971 -1345 1140 -132 37 -293 68 -398 75 -46 3 -102 7 -124 9
-22 2 -51 0 -65 -4z m-1565 -3570 c10 -11 14 -20 8 -20 -5 0 -18 9 -28 20 -10
11 -14 20 -8 20 5 0 18 -9 28 -20z m65 -65 c20 -24 6 -28 -15 -5 -10 11 -13
20 -8 20 6 0 16 -7 23 -15z m355 -255 c3 -5 1 -10 -4 -10 -6 0 -11 5 -11 10 0
6 2 10 4 10 3 0 8 -4 11 -10z m62 -36 c-3 -3 -12 -4 -19 -1 -8 3 -5 6 6 6 11
1 17 -2 13 -5z m57 -50 c5 -14 4 -15 -9 -4 -17 14 -19 20 -6 20 5 0 12 -7 15
-16z m1606 -164 c-8 -5 -19 -10 -25 -10 -5 0 -3 5 5 10 8 5 20 10 25 10 6 0 3
-5 -5 -10z m-615 -70 c-3 -5 -12 -10 -18 -10 -7 0 -6 4 3 10 19 12 23 12 15 0z
m42 -6 c-3 -3 -12 -4 -19 -1 -8 3 -5 6 6 6 11 1 17 -2 13 -5z"/>
<path d="M1975 4300 c-19 -8 -19 -9 2 -9 12 -1 25 4 28 9 7 12 -2 12 -30 0z"/>
<path d="M2058 4303 c17 -2 47 -2 65 0 17 2 3 4 -33 4 -36 0 -50 -2 -32 -4z"/>
<path d="M1868 4283 c7 -3 16 -2 19 1 4 3 -2 6 -13 5 -11 0 -14 -3 -6 -6z"/>
<path d="M1636 4249 c-22 -5 -42 -12 -45 -16 -9 -9 73 8 84 18 5 5 7 9 5 8 -3
-1 -23 -5 -44 -10z"/>
<path d="M1540 4220 c-18 -12 -2 -12 25 0 13 6 15 9 5 9 -8 0 -22 -4 -30 -9z"/>
<path d="M2020 4200 c-163 -12 -409 -63 -530 -111 -194 -76 -273 -114 -382
-181 -26 -17 -53 -26 -59 -22 -7 4 -9 3 -6 -3 4 -6 -20 -29 -52 -52 -60 -42
-78 -50 -65 -30 12 19 -29 -7 -51 -33 -20 -23 -20 -23 8 1 15 14 29 22 32 19
5 -5 -98 -98 -109 -98 -3 0 -3 7 0 15 4 8 2 15 -4 15 -6 0 -9 -8 -8 -17 2 -11
-37 -60 -101 -127 -192 -200 -310 -381 -422 -646 -60 -141 -103 -293 -132
-465 -15 -87 -19 -399 -7 -527 11 -113 80 -402 101 -423 6 -7 8 -3 4 10 -79
270 -91 360 -91 640 1 203 4 257 22 349 12 60 26 113 33 117 6 3 8 12 4 19 -4
7 -2 15 4 19 6 4 13 22 14 39 1 18 5 32 8 32 4 0 10 15 14 33 4 17 9 35 10 40
1 4 4 10 5 15 1 4 3 12 4 17 13 59 144 314 221 430 378 562 1000 895 1675 895
876 0 1644 -557 1910 -1385 72 -225 95 -403 87 -674 -4 -157 -11 -221 -32
-321 -66 -316 -209 -622 -402 -863 -48 -60 -57 -66 -71 -55 -15 12 -16 11 -3
-5 13 -17 7 -26 -75 -106 -124 -122 -298 -258 -268 -209 4 7 3 8 -5 4 -6 -4
-9 -12 -6 -17 8 -13 -109 -86 -250 -157 -618 -309 -1347 -285 -1931 64 -52 31
-141 91 -197 134 -56 43 -103 77 -105 75 -5 -5 49 -56 83 -79 16 -12 55 -39
85 -62 30 -22 71 -49 90 -60 19 -10 41 -25 49 -32 21 -20 266 -137 348 -166
210 -74 386 -106 628 -113 256 -7 454 21 695 99 217 69 509 232 667 371 20 17
38 26 45 21 7 -4 10 -4 6 1 -9 9 241 271 254 267 5 -1 7 2 3 8 -3 5 12 33 33
62 22 29 54 77 72 106 18 29 36 49 42 45 7 -3 8 -1 4 5 -7 12 21 62 28 52 3
-3 8 -1 13 4 5 5 3 6 -5 2 -6 -4 -12 -5 -12 -3 0 2 27 61 60 130 140 294 200
555 200 862 0 516 -180 979 -529 1364 -85 94 -244 237 -312 282 -20 13 -69 45
-109 72 -334 222 -803 339 -1230 307z"/>
<path d="M1380 4171 c-264 -99 -493 -247 -714 -461 -344 -335 -564 -749 -641
-1210 -26 -151 -31 -439 -11 -598 19 -147 59 -320 105 -456 32 -91 91 -229 98
-223 1 2 -21 64 -50 138 -113 282 -150 472 -150 769 -2 514 139 930 454 1345
91 120 184 219 198 211 6 -4 9 -1 5 7 -6 18 155 159 173 152 7 -2 12 1 10 7
-4 19 182 144 308 208 66 33 167 78 225 99 58 22 96 40 85 40 -11 0 -54 -13
-95 -28z"/>
<path d="M1425 4130 c-3 -5 -1 -10 4 -10 6 0 11 5 11 10 0 6 -2 10 -4 10 -3 0
-8 -4 -11 -10z"/>
<path d="M1365 4100 c4 -6 11 -8 16 -5 14 9 11 15 -7 15 -8 0 -12 -5 -9 -10z"/>
<path d="M1170 4020 c0 -5 5 -10 10 -10 6 0 10 5 10 10 0 6 -4 10 -10 10 -5 0
-10 -4 -10 -10z"/>
<path d="M1145 4010 c-3 -5 -1 -10 4 -10 6 0 11 5 11 10 0 6 -2 10 -4 10 -3 0
-8 -4 -11 -10z"/>
<path d="M1059 3983 c-13 -16 -12 -17 4 -4 9 7 17 15 17 17 0 8 -8 3 -21 -13z"/>
<path d="M1189 3983 c-13 -16 -12 -17 4 -4 9 7 17 15 17 17 0 8 -8 3 -21 -13z"/>
<path d="M2063 3960 c-89 -10 -173 -29 -173 -40 0 -5 -3 -16 -7 -26 -5 -14 -3
-16 12 -11 15 6 16 5 5 -8 -17 -21 -1 -19 62 6 83 33 161 58 169 54 3 -3 14 4
24 15 21 23 28 22 -92 10z"/>
<path d="M1040 3950 c0 -5 7 -10 15 -10 8 0 15 5 15 10 0 6 -7 10 -15 10 -8 0
-15 -4 -15 -10z"/>
<path d="M2183 3945 c2 -5 28 -12 58 -15 l54 -5 -34 -24 c-19 -13 -46 -24 -62
-24 -15 0 -26 -4 -23 -9 3 -4 20 -8 38 -8 24 0 42 10 72 39 40 38 40 38 98 30
68 -9 74 -13 55 -36 -13 -15 -12 -16 6 -8 11 5 53 8 93 7 46 -2 72 1 72 7 0 6
-10 11 -22 12 -26 1 -27 1 -123 25 -79 19 -287 26 -282 9z"/>
<path d="M1725 3915 c-60 -13 -144 -37 -185 -53 -84 -34 -239 -122 -240 -136
0 -6 -10 -20 -22 -33 -30 -32 -19 -37 23 -9 37 25 124 57 133 49 7 -7 -5 -34
-13 -29 -4 3 -8 -10 -9 -27 -4 -48 -12 -67 -29 -67 -13 0 -13 3 -3 15 11 13
10 14 -11 5 -13 -6 -31 -13 -39 -16 -9 -3 -24 -18 -35 -35 -11 -16 -26 -29
-33 -29 -7 0 -10 -5 -6 -11 3 -6 17 -9 30 -6 13 2 25 -1 28 -7 2 -6 10 -3 19
9 8 11 18 17 22 14 3 -4 18 4 33 18 15 14 52 37 82 53 146 73 169 89 252 173
48 48 91 87 95 87 10 0 63 45 63 54 0 10 -41 6 -155 -19z m19 -60 c-19 -19
-39 -35 -44 -35 -6 0 -10 -7 -10 -15 0 -8 -3 -14 -7 -13 -25 6 -53 -15 -53
-40 0 -18 -3 -23 -8 -14 -7 9 -20 2 -53 -28 -24 -22 -47 -40 -51 -40 -3 0 -21
-12 -38 -27 l-32 -27 6 50 c15 106 23 123 74 145 26 12 54 22 62 24 8 2 29 9
45 15 35 14 115 38 132 39 7 1 -3 -15 -23 -34z m-389 -255 c-3 -5 -12 -10 -18
-10 -7 0 -6 4 3 10 19 12 23 12 15 0z"/>
<path d="M969 3900 c-13 -10 -19 -19 -13 -20 6 0 19 9 29 20 23 26 14 26 -16
0z"/>
<path d="M1070 3910 c-9 -6 -10 -10 -3 -10 6 0 15 5 18 10 8 12 4 12 -15 0z"/>
<path d="M905 3880 c-3 -5 -1 -10 4 -10 6 0 11 5 11 10 0 6 -2 10 -4 10 -3 0
-8 -4 -11 -10z"/>
<path d="M2552 3870 c-19 -4 -39 -13 -45 -20 -10 -10 -6 -11 18 -5 17 4 60 9
98 10 37 1 71 5 75 10 4 4 -14 6 -40 4 -27 -3 -48 -1 -48 3 0 9 -13 9 -58 -2z"/>
<path d="M866 3824 c-5 -14 -4 -15 9 -4 17 14 19 20 6 20 -5 0 -12 -7 -15 -16z"/>
<path d="M1883 3819 c4 -12 -5 -19 -31 -27 -19 -6 -38 -10 -41 -8 -3 2 -12 -2
-19 -10 -12 -14 0 -13 72 1 11 2 27 -1 35 -8 12 -10 14 -9 8 6 -5 15 -4 16 13
7 22 -12 170 -14 170 -2 0 5 -44 14 -97 21 -54 6 -101 17 -106 24 -6 8 -7 7
-4 -4z"/>
<path d="M2020 3820 c0 -13 30 -13 50 0 11 7 7 10 -17 10 -18 0 -33 -4 -33
-10z"/>
<path d="M2220 3788 c0 -17 2 -18 15 -8 8 7 15 14 15 15 0 2 -7 5 -15 9 -10 4
-15 -1 -15 -16z"/>
<path d="M2860 3800 c0 -5 4 -10 9 -10 6 0 13 5 16 10 3 6 -1 10 -9 10 -9 0
-16 -4 -16 -10z"/>
<path d="M2201 3774 c0 -11 3 -14 6 -6 3 7 2 16 -1 19 -3 4 -6 -2 -5 -13z"/>
<path d="M3455 3780 c-3 -6 1 -7 9 -4 18 7 21 14 7 14 -6 0 -13 -4 -16 -10z"/>
<path d="M2338 3759 c-2 -7 -22 -13 -46 -14 -23 -1 -44 -4 -48 -8 -3 -3 -44
-25 -91 -47 -47 -23 -83 -43 -81 -45 2 -2 62 -6 133 -9 143 -6 215 -14 230
-26 6 -4 57 -17 114 -30 68 -14 132 -36 183 -61 43 -22 78 -35 78 -31 0 12
-28 34 -73 57 -36 18 -69 50 -92 90 -7 11 -24 18 -47 19 -20 0 -34 5 -31 9 3
5 -3 7 -12 5 -10 -2 -20 3 -23 11 -3 10 0 12 11 8 9 -3 19 -2 22 4 4 5 -2 12
-12 16 -10 3 -27 13 -37 22 -11 9 -16 10 -12 3 10 -17 -24 -11 -59 12 -17 11
-37 16 -55 13 -15 -3 -32 -1 -37 4 -8 8 -12 7 -15 -2z m297 -147 c-3 -3 -11 0
-18 7 -9 10 -8 11 6 5 10 -3 15 -9 12 -12z"/>
<path d="M2765 3760 c-19 -8 -19 -9 2 -9 12 -1 25 4 28 9 7 12 -2 12 -30 0z"/>
<path d="M2120 3750 c-8 -6 -24 -10 -36 -10 -63 0 -184 -61 -184 -92 0 -5 13
2 30 15 19 17 57 32 107 42 43 10 84 23 92 31 18 17 11 26 -9 14z"/>
<path d="M2460 3750 c8 -5 20 -10 25 -10 6 0 3 5 -5 10 -8 5 -19 10 -25 10 -5
0 -3 -5 5 -10z"/>
<path d="M2135 3725 c-16 -14 -43 -25 -60 -26 -16 0 -48 -7 -70 -15 -41 -14
-41 -14 55 2 54 9 84 23 98 44 15 25 14 25 -23 -5z"/>
<path d="M1265 3729 c-4 -6 -14 -8 -22 -5 -8 3 -12 2 -9 -3 3 -5 -41 -41 -99
-81 -57 -39 -109 -78 -116 -86 -17 -20 -34 -17 -18 4 12 15 12 16 -2 4 -9 -7
-14 -22 -12 -35 5 -28 -78 -102 -107 -94 -12 3 -27 -5 -42 -22 l-23 -26 28 24
c42 37 32 17 -26 -57 -30 -37 -64 -81 -76 -99 -12 -18 -27 -30 -34 -28 -32 12
-225 -362 -260 -504 -12 -47 -27 -90 -33 -96 -7 -5 -21 -64 -32 -130 -28 -169
-31 -192 -24 -199 9 -10 9 -137 -1 -143 -11 -7 1 -124 19 -191 8 -29 12 -67 9
-85 -7 -36 47 -243 91 -355 25 -62 102 -195 145 -250 10 -13 15 -30 13 -37 -7
-18 56 -106 69 -98 6 3 7 1 3 -5 -9 -15 107 -158 135 -167 12 -4 18 -12 15
-21 -3 -7 0 -16 6 -20 7 -4 8 -3 4 4 -4 7 -3 12 2 12 5 0 17 -16 26 -35 17
-35 86 -93 189 -159 31 -20 57 -40 57 -45 0 -8 126 -86 248 -153 34 -19 59
-38 55 -43 -5 -4 -2 -5 4 -1 7 4 53 -7 103 -24 50 -16 100 -30 110 -30 10 0
22 -5 25 -10 4 -6 11 -8 16 -4 6 3 18 -1 27 -9 25 -22 220 -51 300 -44 37 3
75 1 85 -5 12 -6 23 -6 32 2 9 7 15 8 20 0 10 -16 114 -12 180 7 33 9 83 17
110 18 28 1 60 5 73 9 12 4 36 9 51 11 45 6 201 55 244 77 22 11 45 17 53 14
8 -3 13 -2 10 3 -3 4 7 14 22 22 15 8 47 27 72 42 33 21 53 27 75 23 19 -4 25
-3 16 3 -10 6 -2 16 34 36 25 15 85 58 133 96 47 37 90 65 95 62 6 -4 7 -1 2
6 -8 14 72 104 85 96 11 -7 104 95 145 159 20 31 40 54 45 51 5 -3 16 8 25 25
9 18 21 28 27 24 7 -4 8 -3 4 4 -4 7 13 45 38 86 53 87 130 262 153 349 9 34
22 69 30 78 28 33 55 226 58 404 3 191 -3 297 -16 289 -5 -3 -7 -15 -4 -27 3
-12 7 -41 8 -64 2 -40 1 -43 -23 -43 -39 0 -70 -27 -70 -60 0 -16 5 -32 11
-36 9 -5 10 1 5 20 -6 23 -3 29 14 33 11 3 20 9 20 14 0 5 7 9 15 9 11 0 15
-14 17 -57 4 -119 -2 -237 -12 -243 -6 -4 -9 -24 -7 -46 2 -21 -2 -64 -9 -94
-11 -50 -12 -52 -14 -20 -3 66 -7 80 -24 98 -22 25 -64 17 -78 -14 -6 -13 -15
-24 -20 -24 -4 0 -8 -4 -8 -9 0 -5 20 -8 45 -6 24 2 47 0 50 -5 3 -6 0 -7 -8
-4 -8 3 -18 0 -23 -7 -5 -8 -3 -10 5 -5 8 5 14 0 18 -14 4 -14 8 -18 13 -10 4
7 10 -1 14 -20 6 -34 -9 -97 -52 -213 -25 -69 -40 -80 -53 -36 -4 13 -19 51
-32 83 -25 60 -25 60 -29 25 -2 -19 3 -47 11 -64 13 -28 13 -29 -4 -15 -15 13
-15 9 4 -28 12 -23 26 -40 31 -37 6 4 10 1 10 -4 0 -6 -9 -11 -21 -11 -11 0
-18 -4 -14 -10 3 -5 13 -6 22 -3 11 4 14 3 9 -5 -4 -7 -2 -12 3 -12 6 0 11 -5
11 -11 0 -6 -9 -8 -22 -3 -20 6 -21 5 -9 -9 11 -14 10 -20 -7 -41 -15 -20 -22
-22 -32 -13 -10 10 -10 8 -1 -11 11 -21 10 -24 -18 -35 -32 -12 -44 -30 -13
-21 16 5 16 5 0 -9 -10 -8 -18 -21 -18 -29 0 -8 -3 -17 -6 -21 -8 -8 -35 3
-29 13 3 4 -2 10 -10 14 -20 7 -92 -25 -133 -58 -37 -32 -43 -24 -9 13 19 22
17 21 -15 -4 -20 -17 -39 -37 -43 -45 -5 -12 -4 -13 6 -2 24 23 32 12 9 -13
-54 -58 -82 -11 -34 58 21 31 28 36 40 26 10 -8 14 -8 14 0 0 6 -5 11 -10 11
-6 0 -10 17 -9 38 1 20 -1 46 -6 56 -6 15 -5 17 5 11 9 -6 11 -4 6 4 -5 7 -11
10 -14 6 -3 -3 -20 9 -38 26 -29 28 -36 30 -73 24 -26 -4 -56 -20 -85 -46 -24
-21 -53 -39 -64 -39 -22 0 -35 22 -22 36 5 5 22 35 39 68 35 66 40 112 14 119
-14 3 -11 6 10 11 15 5 27 15 27 23 0 7 12 25 26 38 14 13 23 29 19 35 -4 7 6
5 23 -4 16 -8 32 -12 36 -9 3 4 6 1 6 -5 0 -25 19 -11 31 22 7 19 16 33 21 30
4 -3 8 4 8 15 0 11 4 22 9 25 13 9 19 65 7 70 -6 3 3 3 19 -1 17 -3 34 -9 38
-13 14 -13 20 -84 10 -120 -12 -45 -3 -82 22 -86 29 -4 45 9 74 61 14 27 33
51 41 53 11 4 10 1 -3 -12 -20 -21 -21 -25 -2 -50 8 -11 15 -24 15 -30 0 -5
-6 -1 -14 10 -14 18 -16 18 -32 2 -15 -15 -15 -19 -3 -35 7 -10 9 -15 5 -11
-5 4 -15 3 -22 -3 -7 -6 -14 -6 -18 0 -19 31 -72 -41 -128 -171 -12 -30 -1
-20 23 20 13 20 25 39 28 42 4 3 15 23 26 45 19 37 23 40 64 41 38 0 41 -1 25
-13 -11 -8 -19 -27 -19 -46 -1 -27 3 -33 19 -35 13 -1 16 2 9 6 -9 6 -6 15 11
33 13 14 31 40 40 57 9 18 21 32 26 32 6 0 10 8 10 17 0 24 23 83 32 83 4 0 8
18 8 41 0 24 4 38 10 34 6 -3 10 -1 10 5 0 7 -7 10 -15 6 -15 -5 -36 23 -40
54 -1 8 -7 28 -14 44 -6 16 -12 44 -13 63 -1 18 -4 33 -8 33 -4 0 -6 10 -5 23
1 12 3 28 4 35 1 16 21 16 21 -1 0 -14 35 -47 50 -47 6 0 10 -8 10 -18 0 -19
18 -42 33 -42 4 0 5 10 2 23 -5 17 -4 19 4 7 9 -13 12 -13 23 1 18 23 73 36
65 15 -3 -8 2 -16 14 -19 12 -3 19 0 19 10 0 8 -5 11 -12 7 -6 -4 -8 -3 -5 3
9 15 -24 94 -36 86 -6 -3 -7 -1 -4 4 9 15 -10 56 -59 128 -22 33 -58 91 -79
128 -20 37 -39 66 -42 63 -3 -2 -5 -24 -5 -49 0 -43 0 -44 -29 -41 -16 2 -29
-1 -29 -7 0 -7 9 -9 21 -6 16 4 18 3 9 -8 -8 -10 -6 -16 8 -27 16 -11 20 -26
20 -83 0 -39 -6 -98 -15 -133 -8 -35 -13 -72 -10 -83 3 -10 2 -19 -1 -19 -4 0
-16 -37 -26 -83 -11 -45 -25 -94 -33 -109 -43 -87 -32 -101 13 -18 15 28 32
50 37 50 6 0 7 16 4 38 -6 35 -5 36 10 17 15 -20 15 -20 10 3 -4 19 -3 21 9
11 8 -6 14 -18 14 -25 0 -8 8 -14 18 -14 11 -1 7 -6 -13 -17 -44 -23 -74 -53
-96 -94 -10 -20 -26 -39 -35 -43 -21 -8 -36 12 -29 39 15 56 17 106 5 120 -35
42 -46 78 -39 124 6 44 0 68 -28 99 -7 7 -17 10 -23 7 -7 -4 -7 2 -1 19 8 18
6 28 -5 37 -13 10 -13 14 1 29 22 24 18 36 -5 15 -11 -10 -20 -24 -20 -32 0
-8 -4 -11 -10 -8 -5 3 -20 1 -32 -5 -13 -6 -8 1 12 17 19 15 46 40 60 54 24
25 28 26 53 13 26 -14 27 -13 35 18 5 18 6 38 3 43 -3 6 -7 2 -9 -7 -2 -10 -9
-18 -15 -18 -7 0 -6 -4 3 -10 12 -8 10 -10 -8 -10 -17 0 -23 5 -21 18 5 29
-10 58 -34 69 -26 12 -99 -8 -132 -36 -11 -9 -29 -23 -39 -31 -18 -13 -19 -13
-11 0 5 8 20 23 33 34 13 11 19 21 14 25 -18 11 -19 63 -2 68 12 4 12 3 1 -5
-11 -8 -10 -14 4 -36 19 -28 36 -30 43 -5 3 11 2 11 -7 -1 -9 -13 -11 -12 -11
3 0 11 -4 15 -11 11 -20 -12 -1 44 23 68 l21 21 -5 -21 c-4 -12 -2 -22 2 -22
5 0 12 14 15 32 7 31 8 31 22 12 15 -18 15 -18 10 4 -3 12 -2 22 2 22 18 0 40
-39 46 -83 6 -38 13 -50 34 -61 14 -7 32 -11 40 -8 8 2 11 0 8 -5 -3 -5 -2
-15 4 -23 6 -11 9 -4 9 23 0 20 -5 37 -11 37 -15 0 -9 136 8 179 7 18 10 38 5
45 -34 53 -107 145 -110 138 -1 -5 11 -58 27 -117 17 -59 34 -142 37 -184 6
-70 6 -75 -10 -62 -9 7 -16 19 -16 25 0 29 -23 88 -44 113 -30 37 -42 73 -26
83 8 5 9 13 4 21 -15 25 -14 44 4 58 11 9 13 15 5 18 -8 3 -9 13 -3 34 7 24 3
46 -16 97 -14 37 -28 78 -31 90 l-6 24 41 -21 c28 -14 51 -38 77 -81 30 -49
43 -62 75 -71 22 -7 42 -20 45 -30 3 -10 15 -21 26 -24 11 -4 19 -15 18 -28 0
-21 -1 -21 -10 2 -14 35 -20 21 -11 -29 l7 -45 24 24 c12 12 20 29 17 36 -3 8
3 17 15 20 20 7 20 7 2 28 -16 19 -16 20 0 8 15 -12 17 -10 17 21 0 19 5 39
12 46 8 8 8 12 1 12 -6 0 -13 13 -16 29 -3 16 -24 67 -46 114 -37 81 -42 87
-88 107 -26 11 -60 27 -74 35 -14 8 -29 12 -33 8 -7 -7 -46 26 -46 40 0 5 7 4
16 -4 13 -10 17 -10 24 0 6 10 13 8 30 -9 12 -12 23 -20 25 -18 5 5 -32 68
-37 62 -3 -3 -9 7 -12 22 -4 15 -16 42 -27 58 -14 20 -6 15 20 -14 43 -47 55
-47 21 0 -11 15 -16 31 -12 35 4 5 1 5 -5 1 -7 -4 -13 -3 -13 3 0 5 6 11 13
14 36 12 -72 62 -174 81 -14 2 -47 14 -73 26 -27 12 -49 20 -51 18 -2 -2 37
-46 86 -98 50 -52 110 -124 134 -160 24 -36 53 -74 64 -84 12 -11 21 -23 21
-28 0 -5 22 -55 49 -111 61 -124 68 -147 47 -147 -8 0 -34 26 -57 58 -49 67
-74 89 -111 97 -15 4 -40 21 -56 40 -41 46 -68 58 -113 51 -24 -4 -39 -2 -40
4 -1 5 -2 16 -3 23 -1 6 -9 11 -19 9 -9 -2 -17 2 -17 8 0 5 5 10 10 10 7 0 9
26 5 73 -10 136 -26 197 -51 197 -8 0 -16 11 -20 25 -4 16 -13 25 -25 25 -19
0 -19 -1 -2 -27 27 -44 45 -63 55 -57 4 3 8 2 7 -3 -1 -4 0 -10 1 -13 2 -3 4
-25 6 -50 2 -25 6 -70 10 -101 3 -36 2 -59 -5 -64 -7 -4 -11 6 -11 28 0 44
-29 72 -65 63 -32 -8 -76 14 -100 51 -10 15 -27 36 -38 46 -18 15 -18 17 -3
17 22 0 52 -16 97 -51 39 -31 99 -40 99 -15 0 9 -8 12 -25 9 -17 -4 -42 7 -86
36 -37 25 -73 41 -91 41 -16 0 -27 4 -23 9 8 14 -14 27 -51 30 -8 0 -12 6 -9
11 4 6 -4 19 -17 30 -13 11 -19 19 -15 20 5 0 -1 12 -12 26 -12 15 -21 31 -21
35 0 8 101 -42 127 -63 7 -6 21 -7 30 -4 10 4 14 4 10 0 -8 -8 11 -34 25 -34
6 0 4 8 -3 18 -13 15 -12 16 3 3 10 -7 16 -16 14 -20 -3 -4 24 -33 60 -65 35
-31 64 -52 64 -46 0 12 -50 78 -90 118 -14 13 -24 28 -23 33 5 16 -50 49 -81
49 -17 0 -49 5 -71 10 -22 6 -56 13 -75 16 -19 3 -76 23 -125 45 -101 44 -161
51 -188 21 -20 -22 -13 -32 20 -32 14 0 34 -5 46 -12 12 -7 28 -13 35 -14 8
-1 23 -11 35 -21 11 -10 17 -13 14 -6 -5 7 0 9 13 6 14 -4 20 0 20 12 0 14 7
11 32 -14 17 -17 35 -31 40 -31 4 0 8 -4 8 -8 0 -5 -10 -8 -22 -8 -13 1 -22
-4 -21 -11 5 -22 -23 -14 -42 11 -10 13 -24 22 -30 20 -7 -3 -35 4 -64 16 -62
24 -65 24 -57 4 12 -31 -26 8 -40 41 -10 24 -19 30 -47 32 -35 2 -59 15 -172
94 -63 45 -190 99 -231 99 -22 0 -23 2 -13 21 9 17 8 20 -2 17 -21 -7 -18 -63
3 -62 10 1 16 -3 15 -9 -1 -5 21 -15 48 -21 30 -7 44 -14 35 -18 -8 -4 -10 -7
-3 -7 6 -1 15 4 18 9 12 19 43 10 110 -35 68 -44 68 -44 41 -54 -14 -6 -31
-22 -36 -35 -12 -33 -39 -39 -131 -32 -70 6 -79 5 -90 -12 -10 -16 -17 -17
-63 -9 -28 5 -58 16 -67 24 -9 7 -39 16 -66 19 -45 6 -59 2 -148 -41 -85 -41
-144 -84 -145 -107 0 -3 9 -4 20 -1 11 3 20 9 20 12 0 15 83 4 95 -12 13 -18
30 -24 20 -7 -3 6 -1 10 4 10 6 0 11 -4 11 -9 0 -13 -50 -51 -66 -51 -23 0
-16 -18 8 -22 22 -3 323 93 390 125 25 12 61 17 116 17 59 0 83 4 92 15 14 17
52 15 171 -10 37 -8 86 -14 110 -13 35 2 54 -4 89 -29 25 -16 66 -39 92 -51
25 -11 74 -39 108 -62 33 -23 75 -46 93 -52 18 -6 56 -37 85 -70 30 -32 62
-58 72 -58 22 0 80 -64 80 -88 1 -30 58 -110 81 -114 18 -2 28 -20 55 -103 44
-132 74 -251 74 -296 0 -26 -8 -43 -31 -65 -25 -24 -29 -34 -25 -59 4 -18 -2
-53 -13 -85 -24 -68 -14 -90 29 -60 15 10 33 26 40 35 25 30 40 18 40 -34 0
-45 -3 -53 -35 -77 -32 -24 -35 -31 -35 -75 0 -43 3 -49 21 -49 25 0 24 -8
-22 -134 -29 -80 -91 -197 -129 -241 -9 -11 -17 -31 -18 -44 -1 -15 -22 -46
-57 -81 -30 -30 -55 -63 -55 -72 0 -18 -50 -58 -73 -58 -22 0 -144 -84 -140
-96 2 -6 -27 -23 -64 -37 -185 -72 -253 -96 -305 -107 -55 -11 -58 -13 -58
-41 0 -53 -13 -65 -68 -63 -27 0 -55 4 -61 9 -8 4 -14 -1 -18 -13 -2 -11 -15
-23 -26 -26 -22 -6 -22 -6 -2 -22 11 -8 19 -21 17 -28 -4 -20 39 -43 94 -51
86 -13 124 -43 124 -99 0 -14 -5 -28 -12 -32 -7 -4 -8 -3 -4 5 4 6 1 14 -7 17
-25 9 -191 -79 -282 -151 -11 -8 -25 -13 -32 -11 -7 3 -13 1 -13 -4 0 -20 -86
-34 -94 -15 -3 10 0 12 11 8 11 -4 14 -2 9 5 -4 7 -2 12 3 12 6 0 11 -6 11
-12 0 -10 3 -9 9 1 5 8 10 9 12 2 3 -6 9 -7 19 -1 20 12 11 19 -33 22 -24 1
-37 7 -37 16 0 7 -6 12 -12 9 -7 -2 -12 -11 -10 -21 2 -9 -4 -16 -13 -16 -10
0 -13 5 -9 11 5 8 -1 10 -18 6 -17 -5 -33 -1 -49 12 -37 29 -118 61 -153 61
-28 0 -153 38 -226 68 -53 22 -67 25 -120 24 -30 0 -63 4 -73 10 -14 7 -22 6
-29 -3 -8 -11 -9 -10 -5 3 3 9 -1 19 -9 22 -9 3 -12 11 -8 17 4 7 3 9 -3 6 -6
-4 -23 10 -38 31 -16 20 -50 59 -77 86 -51 50 -63 93 -24 89 12 -1 15 2 8 9
-7 7 -17 6 -30 -1 -16 -8 -21 -7 -26 4 -4 12 3 15 34 15 28 0 55 -10 92 -33
29 -19 66 -37 82 -41 15 -4 26 -10 23 -13 -3 -3 -20 0 -38 6 -39 14 -53 6 -15
-9 50 -19 90 -12 121 19 24 26 27 35 22 72 -3 23 -15 54 -26 68 -63 78 -72 97
-61 127 11 28 11 28 -10 9 -25 -22 -19 -66 12 -99 37 -39 60 -87 60 -122 0
-39 -16 -64 -41 -64 -14 0 -14 2 -1 10 12 8 11 12 -7 32 -21 22 -58 108 -47
108 2 0 -2 10 -10 23 -7 12 -22 64 -32 114 -10 51 -21 93 -25 93 -4 0 -5 9 -2
20 4 13 0 20 -10 20 -8 0 -17 7 -21 15 -3 8 -12 12 -21 9 -8 -3 -15 -1 -15 6
0 6 -4 9 -8 6 -13 -8 -123 112 -126 137 -4 27 -11 47 -42 115 -13 29 -25 64
-26 77 -1 13 -4 22 -6 20 -4 -4 -63 65 -112 131 -20 28 -30 33 -50 28 -14 -3
-26 -6 -27 -7 -3 -4 25 -103 44 -152 15 -41 24 -52 50 -59 21 -7 39 -22 53
-48 12 -21 32 -51 45 -67 14 -15 21 -32 17 -36 -4 -4 4 -5 17 -3 14 2 26 -3
29 -11 3 -10 -2 -11 -19 -6 -64 18 -82 31 -115 83 -19 30 -37 52 -40 50 -14
-15 126 -258 204 -353 53 -65 149 -170 176 -195 52 -46 85 -83 80 -91 -2 -4
-32 3 -66 17 -33 13 -83 27 -110 30 -29 4 -52 13 -55 21 -4 9 -8 11 -12 4 -4
-6 -20 -7 -45 -1 -46 10 -55 18 -36 30 8 6 10 10 5 10 -6 0 -16 -5 -22 -11 -7
-7 -18 -8 -29 -2 -11 5 -29 8 -41 7 -13 0 -23 3 -23 8 0 5 9 6 20 3 12 -4 20
-2 20 5 0 6 -4 8 -10 5 -16 -10 -12 7 8 28 9 11 11 17 5 13 -7 -4 -13 -2 -13
3 0 6 5 11 11 11 7 0 5 10 -5 25 -36 55 -85 175 -74 181 7 4 8 2 4 -4 -4 -7
-1 -12 7 -12 8 0 18 -7 21 -16 3 -8 10 -13 14 -10 5 3 18 -1 28 -9 22 -17 34
-19 34 -5 0 16 -83 63 -112 63 -24 0 -25 2 -10 13 15 11 15 13 -9 22 -19 8
-36 32 -63 86 -20 42 -35 78 -34 79 2 2 -2 10 -9 18 -12 15 -7 113 11 216 4
21 1 36 -9 46 -8 8 -11 17 -8 21 4 3 1 6 -6 6 -22 0 -72 148 -62 184 1 5 -8
19 -20 32 -29 31 -15 53 16 24 15 -14 30 -48 40 -91 11 -46 27 -79 45 -99 26
-28 19 -45 -8 -18 -7 7 -12 8 -12 4 0 -17 36 -35 69 -36 27 0 42 8 73 42 31
33 38 49 39 82 2 95 15 108 24 24 6 -52 27 -162 52 -276 5 -23 6 -23 20 -2 8
11 17 30 19 43 3 12 8 32 11 44 3 13 -3 34 -17 53 -25 35 -50 110 -50 150 0
15 -10 36 -25 50 -21 20 -27 21 -42 9 -10 -7 -7 -1 6 13 20 23 25 25 38 13 8
-8 21 -18 29 -23 8 -5 19 -35 25 -72 12 -78 15 -83 39 -68 17 11 17 13 3 23
-12 9 -13 14 -4 19 6 4 9 11 6 16 -3 5 -6 25 -7 45 -1 19 -3 33 -5 31 -3 -2
-14 3 -25 12 -46 38 -48 42 -37 69 9 23 7 30 -13 46 -13 10 -18 16 -12 13 7
-3 15 1 18 10 3 8 11 12 17 8 8 -4 7 -9 -2 -16 -11 -7 -11 -11 -1 -15 6 -2 12
-11 12 -18 0 -7 7 -15 15 -19 8 -3 15 -12 15 -21 0 -8 5 -15 10 -15 6 0 10 6
10 14 0 8 3 23 7 33 6 16 5 16 -10 4 -27 -21 -20 -5 11 26 l27 27 5 -44 5 -45
7 45 c5 30 15 51 31 65 16 13 28 38 35 67 5 26 6 45 2 43 -5 -3 -10 0 -12 7
-3 8 -9 8 -24 0 -18 -11 -18 -11 2 -12 18 0 20 -4 15 -37 -5 -32 -13 -40 -61
-65 -60 -31 -64 -32 -56 -19 3 5 -1 12 -10 15 -8 3 -12 2 -9 -4 3 -6 -1 -7 -9
-4 -20 8 -20 20 -2 27 18 7 13 43 -5 39 -8 -2 -11 0 -6 4 4 4 1 14 -7 23 -14
16 -28 163 -14 155 7 -5 30 57 23 64 -3 3 1 12 7 20 7 8 17 23 23 34 10 20 33
25 28 7 -2 -5 2 -9 7 -9 6 0 10 5 10 10 0 11 11 3 53 -34 l21 -20 -35 -12
c-19 -7 -44 -13 -56 -13 -25 -1 -29 -10 -13 -29 7 -9 7 -9 -2 -2 -20 17 -40
11 -36 -10 2 -12 8 -21 13 -21 10 0 25 -29 31 -58 4 -22 22 -34 40 -27 16 6
16 8 -2 21 -14 11 -15 14 -3 9 10 -3 20 -1 24 5 3 6 -1 11 -9 11 -8 0 -17 4
-20 9 -4 5 3 7 13 4 13 -3 21 2 25 15 4 11 13 23 21 26 18 7 19 11 -5 -50 -10
-29 -16 -54 -13 -58 3 -3 23 36 43 87 38 97 85 188 128 246 20 27 23 37 14 52
-9 15 -7 19 16 27 37 13 144 112 138 128 -6 17 20 38 36 28 7 -4 10 -3 5 1
-12 14 45 65 86 76 21 6 55 26 75 45 l37 34 -30 -6 c-58 -11 -95 -12 -95 -3 0
5 -9 9 -21 9 -13 0 -18 4 -13 12 7 11 -65 7 -126 -7 -14 -3 -44 -8 -66 -10
-23 -3 -79 -16 -125 -31 -46 -15 -89 -27 -96 -28 -7 -1 -16 -5 -19 -9 -4 -4
-11 -7 -16 -7 -4 0 1 9 12 20 11 11 22 31 26 45 3 14 10 25 14 25 5 0 11 14
15 31 4 19 15 33 26 36 19 5 27 23 11 23 -10 0 -9 30 2 48 4 6 4 17 1 22 -3 6
-1 10 5 10 7 0 9 8 5 19 -3 12 0 21 9 24 17 7 18 67 1 67 -5 0 -1 8 10 16 14
11 16 18 8 21 -20 7 -16 43 5 44 10 0 12 3 5 6 -7 2 -13 9 -13 14 0 6 5 7 10
4 6 -3 10 1 10 9 0 8 8 17 18 21 9 3 28 24 42 46 14 22 37 53 52 67 15 15 28
30 28 35 0 11 -18 9 -25 -4z m-200 -232 c7 -8 10 -19 6 -26 -11 -17 -41 -2
-41 20 0 22 16 25 35 6z m-69 -56 c-1 -26 -5 -37 -13 -34 -7 3 -13 -2 -13 -12
0 -9 5 -13 10 -10 6 3 10 2 10 -4 0 -16 -41 -24 -54 -11 -8 10 -7 12 6 7 12
-4 16 -1 13 13 -2 12 5 26 16 34 15 10 17 15 7 18 -11 4 -11 8 1 21 7 10 14
17 16 17 1 0 1 -17 1 -39z m55 -11 c5 -35 -13 -66 -50 -84 -34 -16 -42 -16
-67 -4 -30 14 -47 58 -22 58 7 0 19 9 26 20 7 11 17 20 24 20 6 0 4 -8 -5 -18
-10 -10 -14 -22 -10 -27 5 -4 4 -6 -2 -3 -5 3 -16 0 -23 -8 -10 -11 -8 -16 13
-30 23 -15 27 -15 53 2 15 10 30 17 35 16 4 -1 7 7 7 18 0 11 4 20 10 20 6 0
6 10 -1 28 -6 16 -6 23 0 17 5 -5 10 -17 12 -25z m1219 -56 c0 -3 -17 -3 -37
0 -21 3 -43 5 -50 6 -18 0 -4 28 15 33 16 3 72 -28 72 -39z m-1350 -50 c0 4 6
4 13 -1 6 -4 28 -8 47 -8 28 0 36 -5 44 -28 8 -23 7 -30 -11 -42 -22 -15 -63
-75 -63 -91 0 -5 14 7 31 26 l31 35 -22 -37 c-26 -46 -41 -95 -33 -114 7 -20
55 -44 79 -39 10 2 22 4 26 4 3 1 21 13 40 28 27 23 30 23 13 4 -27 -31 -67
-51 -107 -52 -27 0 -29 -2 -13 -8 30 -13 66 -3 112 29 23 16 45 25 48 20 4 -6
-1 -10 -10 -10 -8 0 -18 -7 -21 -15 -3 -8 -21 -20 -40 -27 -19 -6 -34 -16 -34
-21 0 -4 5 -5 12 -1 8 5 9 2 5 -10 -4 -9 -3 -15 2 -11 5 3 11 -1 14 -7 3 -9
10 -7 22 7 17 19 17 19 2 -5 -8 -14 -33 -55 -56 -93 -22 -37 -41 -70 -41 -74
0 -13 38 34 55 68 16 31 19 32 26 14 4 -11 8 -15 9 -10 0 6 7 2 15 -9 13 -17
14 -16 9 16 -7 38 19 102 38 96 6 -2 27 13 46 34 19 21 37 36 39 34 3 -3 -5
-15 -17 -28 -31 -33 -66 -83 -52 -74 7 4 12 2 12 -4 0 -7 -9 -14 -20 -17 -19
-5 -19 -7 -6 -27 8 -13 16 -33 18 -47 3 -22 -1 -24 -52 -29 -71 -7 -128 -29
-136 -52 -3 -10 -10 -18 -15 -18 -5 0 -9 -7 -9 -15 0 -8 -4 -15 -9 -15 -6 0
-3 16 5 36 10 24 15 69 15 132 0 79 -4 101 -20 122 -10 14 -25 25 -32 24 -10
-1 -14 11 -13 40 1 74 4 84 38 134 40 60 51 95 29 90 -9 -2 -21 -11 -27 -22
-6 -10 -37 -43 -68 -74 -32 -30 -58 -60 -58 -65 0 -6 23 13 51 42 29 28 53 50
55 48 2 -2 -13 -23 -34 -48 -20 -25 -46 -58 -57 -74 -11 -15 -29 -39 -40 -54
-70 -91 -77 -118 -13 -45 19 22 35 31 45 27 13 -5 15 -2 9 13 -5 14 -4 16 4 8
7 -7 21 -9 32 -6 13 3 16 7 8 12 -8 5 -8 9 2 13 9 3 15 -1 15 -10 0 -9 -9 -18
-19 -21 -10 -2 -15 -9 -11 -14 3 -6 0 -9 -7 -6 -8 2 -25 -8 -39 -22 -28 -29
-61 -49 -90 -55 -16 -3 -18 5 -19 62 -1 36 -4 68 -7 71 -3 3 7 19 22 35 25 26
26 29 7 23 -18 -5 -24 -1 -33 25 -14 40 -14 69 -1 69 9 0 14 -29 13 -67 -1
-28 38 -12 52 20 7 17 17 36 22 40 4 5 8 12 9 15 2 17 19 49 36 66 19 21 25
41 8 31 -6 -3 -7 1 -4 10 5 12 10 13 20 4 11 -9 15 -7 20 6 7 17 8 17 21 -1 7
-10 13 -14 13 -10z m807 2 c5 -5 1 -7 -9 -3 -10 4 -18 2 -18 -3 0 -6 9 -10 21
-10 25 0 59 -17 59 -30 0 -15 -53 -12 -92 4 -34 15 -62 39 -53 47 8 8 83 4 92
-5z m1204 -23 c13 -16 12 -17 -3 -4 -17 13 -22 21 -14 21 2 0 10 -8 17 -17z
m-98 -110 c-7 -2 -19 -2 -25 0 -7 3 -2 5 12 5 14 0 19 -2 13 -5z m-2108 -102
c-6 -5 -25 10 -25 20 0 5 6 4 14 -3 8 -7 12 -15 11 -17z m460 19 c3 -5 12 -10
18 -10 7 0 6 4 -3 10 -12 8 -10 10 11 10 21 0 28 -7 36 -35 12 -37 4 -51 -22
-41 -8 3 -14 0 -12 -6 1 -6 -4 -13 -11 -15 -11 -4 -10 2 2 25 9 17 16 33 16
37 0 9 -39 5 -45 -5 -3 -5 -11 -10 -17 -10 -7 0 -6 6 2 15 9 11 9 15 1 15 -7
0 -9 5 -6 10 3 6 10 10 15 10 5 0 12 -4 15 -10z m115 -14 c0 -3 -4 -8 -10 -11
-5 -3 -10 -1 -10 4 0 6 5 11 10 11 6 0 10 -2 10 -4z m90 -37 c0 -6 -4 -7 -10
-4 -5 3 -10 11 -10 16 0 6 5 7 10 4 6 -3 10 -11 10 -16z m-83 -7 c8 6 23 13
34 15 15 2 18 -3 16 -27 -2 -27 -17 -45 -17 -20 0 6 -5 10 -12 10 -9 0 -9 -3
0 -12 22 -22 14 -48 -20 -61 -18 -6 -37 -10 -42 -9 -5 2 -17 -5 -27 -14 -17
-16 -39 -12 -39 7 0 20 43 57 62 54 15 -3 18 0 13 15 -4 11 -3 30 1 43 7 19 8
19 12 4 3 -15 6 -16 19 -5z m1761 -34 c7 -7 12 -21 12 -32 0 -18 -1 -18 -25 4
-14 13 -25 27 -25 32 0 12 24 10 38 -4z m-2464 -113 c3 -8 1 -15 -4 -15 -5 0
-8 -13 -7 -30 1 -16 4 -30 7 -30 3 0 5 -12 6 -27 0 -16 4 -43 9 -60 11 -48 -6
-41 -54 21 -27 35 -39 59 -35 70 4 10 12 15 19 12 9 -3 11 2 8 15 -4 13 -1 19
8 17 8 -2 13 3 11 10 -1 8 2 11 9 6 9 -5 10 -2 6 9 -3 10 -2 17 2 17 5 0 11
-7 15 -15z m2957 -17 c1 -13 1 -26 0 -30 -2 -16 22 -114 30 -122 16 -18 10
-54 -8 -52 -12 1 -24 18 -35 53 -23 70 -32 146 -16 137 7 -5 9 0 6 14 -4 15
-2 22 8 22 8 0 15 -10 15 -22z m-2776 -8 c3 -6 -1 -7 -9 -4 -18 7 -21 14 -7
14 6 0 13 -4 16 -10z m-40 -49 c5 -18 4 -22 -5 -16 -8 5 -11 4 -7 -3 4 -5 15
-9 25 -7 9 2 21 4 25 4 5 1 6 5 2 10 -10 17 44 5 65 -14 23 -21 26 -63 8 -128
-9 -36 -9 -49 5 -75 18 -38 2 -45 -28 -11 -20 21 -23 68 -10 149 12 72 -9 37
-48 -80 -63 -188 -76 -274 -77 -498 -2 -170 -2 -175 -19 -153 -10 13 -24 40
-31 60 -23 65 -111 236 -125 244 -8 4 -15 14 -15 21 0 8 -10 16 -23 20 -13 3
-32 22 -45 47 -26 48 -28 60 -6 33 8 -10 13 -13 9 -6 -3 7 1 15 10 18 10 4 12
9 6 13 -5 4 -12 18 -15 31 -20 102 -24 126 -20 130 8 7 24 -23 24 -43 0 -36
20 -5 41 63 11 39 25 67 30 64 5 -3 6 -10 3 -16 -4 -6 -7 -48 -8 -94 -1 -71 1
-84 13 -79 9 4 5 -5 -8 -19 -15 -16 -19 -26 -11 -26 19 0 81 41 75 50 -3 4 1
12 8 18 17 15 42 -2 34 -22 -5 -12 0 -20 16 -26 12 -5 16 -9 9 -9 -10 -1 -10
-5 2 -17 20 -20 36 -10 29 19 -16 71 -45 157 -51 153 -9 -6 -10 47 0 54 8 6
53 106 63 140 4 14 12 31 18 38 12 15 18 7 32 -37z m68 23 c-3 -8 -12 -13 -19
-10 -7 3 -16 1 -19 -4 -4 -6 -11 -10 -17 -10 -6 0 -6 6 2 15 7 9 19 14 26 11
7 -3 16 -1 19 4 10 16 15 12 8 -6z m2467 -129 c7 -16 16 -38 21 -47 12 -24 4
-23 -20 4 -11 11 -18 25 -15 30 3 4 0 8 -6 8 -6 0 -8 5 -5 10 4 6 0 22 -9 35
-9 13 -16 28 -16 32 1 14 39 -41 50 -72z m-2168 -47 c-22 -40 -44 -74 -50 -76
-5 -1 -15 11 -20 28 -6 17 -8 29 -4 26 5 -3 14 -1 22 4 12 8 12 10 -2 15 -14
6 -15 10 -5 26 6 10 17 19 24 19 7 0 13 4 13 9 0 9 20 17 48 20 9 1 -1 -26
-26 -71z m-92 -4 c0 -8 -19 -13 -24 -6 -3 5 1 9 9 9 8 0 15 -2 15 -3z m2564
-19 c-4 -8 -8 -15 -10 -15 -2 0 -4 7 -4 15 0 8 4 15 10 15 5 0 7 -7 4 -15z
m-244 -39 c16 -43 16 -61 0 -58 -8 2 -23 4 -32 5 -19 1 -26 17 -8 17 6 0 6 9
0 26 -13 34 -13 34 10 34 12 0 24 -10 30 -24z m-2710 -44 c0 -13 -12 -22 -22
-16 -10 6 -1 24 13 24 5 0 9 -4 9 -8z m2705 -33 c11 -16 1 -19 -13 -3 -7 8 -8
14 -3 14 5 0 13 -5 16 -11z m-2379 -36 c-11 -11 -17 4 -9 23 7 18 8 18 11 1 2
-10 1 -21 -2 -24z m39 27 c3 -5 1 -10 -4 -10 -6 0 -11 5 -11 10 0 6 2 10 4 10
3 0 8 -4 11 -10z m-522 -272 c15 -15 30 -42 34 -58 3 -17 9 -33 14 -36 14 -8
-2 -33 -17 -27 -13 5 -14 -4 -7 -58 4 -35 8 -94 8 -132 0 -56 2 -65 13 -50 8
11 12 54 12 122 0 59 4 101 9 96 4 -6 16 -67 25 -136 10 -70 26 -164 36 -210
10 -46 16 -86 14 -88 -2 -2 -22 10 -43 27 -22 18 -45 32 -50 32 -6 0 -11 5
-11 11 0 6 -11 20 -25 30 -13 11 -33 32 -44 47 -19 28 -19 28 1 29 38 3 43 20
20 66 -19 39 -52 123 -52 134 0 2 4 1 10 -2 6 -3 7 1 4 9 -3 9 -11 16 -17 16
-6 0 -7 3 -4 6 3 4 2 16 -4 27 -10 18 -8 19 24 15 20 -2 34 -1 31 3 -2 4 3 12
11 19 29 24 18 72 -27 119 -32 33 -37 41 -18 31 14 -7 38 -26 53 -42z m387 38
c0 -3 -4 -8 -10 -11 -5 -3 -10 -1 -10 4 0 6 5 11 10 11 6 0 10 -2 10 -4z
m-436 -45 c28 -30 37 -78 19 -96 -19 -20 -38 -14 -38 11 -1 10 -4 24 -8 31 -9
14 -6 73 4 73 3 0 13 -8 23 -19z m3206 -41 c0 -5 -4 -10 -10 -10 -5 0 -10 5
-10 10 0 6 5 10 10 10 6 0 10 -4 10 -10z m-232 -50 c2 -18 -7 -34 -29 -55 -25
-23 -30 -26 -24 -10 4 11 7 28 7 37 0 12 4 15 16 11 14 -6 15 -4 4 9 -10 13
-10 17 0 21 8 4 7 6 -4 6 -10 1 -18 -4 -18 -11 0 -6 -3 -9 -6 -5 -12 11 8 28
29 25 15 -2 23 -11 25 -28z m-2598 -10 c0 -5 -2 -10 -4 -10 -3 0 -8 5 -11 10
-3 6 -1 10 4 10 6 0 11 -4 11 -10z m-10 -77 c0 -60 -27 -134 -51 -141 -11 -3
-11 -1 -2 5 14 10 20 83 9 101 -4 7 -1 12 6 13 9 0 10 2 1 5 -16 7 -5 34 14
34 10 0 13 6 9 16 -3 8 -2 12 4 9 6 -3 10 -22 10 -42z m2933 -44 c-4 -16 -8
-17 -14 -7 -5 7 -4 14 1 16 6 2 7 9 4 14 -4 6 -2 8 4 5 5 -4 8 -16 5 -28z m57
-3 c0 -2 -7 -7 -16 -10 -8 -3 -12 -2 -9 4 6 10 25 14 25 6z m43 -78 c-5 -10
-35 -10 -57 -2 -9 3 -14 10 -11 15 3 4 12 6 20 2 9 -3 15 1 15 11 0 14 2 14
18 -1 11 -10 17 -21 15 -25z m-533 8 c0 -3 -4 -8 -10 -11 -5 -3 -10 -1 -10 4
0 6 5 11 10 11 6 0 10 -2 10 -4z m70 -42 c6 -14 7 -30 4 -36 -4 -6 -2 -8 4 -4
6 3 13 2 17 -4 3 -5 3 -10 -2 -10 -4 0 -8 -13 -8 -29 0 -16 3 -27 8 -24 4 2 7
-1 7 -6 0 -6 -5 -11 -11 -11 -7 0 -9 -10 -5 -25 4 -14 2 -25 -3 -25 -5 0 -16
-3 -24 -6 -11 -4 -16 2 -19 18 -3 21 -4 21 -21 -11 -20 -40 -21 -45 -5 -35 7
4 8 3 4 -5 -4 -6 -12 -9 -17 -6 -5 4 -9 1 -9 -5 0 -6 -5 -8 -10 -5 -6 4 -8 10
-5 15 3 4 1 10 -4 12 -5 1 4 44 20 93 16 50 29 98 29 107 0 15 12 25 33 27 4
1 12 -11 17 -25z m95 -122 c-3 -3 -11 0 -18 7 -9 10 -8 11 6 5 10 -3 15 -9 12
-12z m178 -106 c4 -10 1 -13 -9 -9 -15 6 -19 23 -5 23 5 0 11 -7 14 -14z
m-323 -36 c0 -5 -10 -10 -22 -9 -22 0 -22 1 -3 9 11 5 21 9 23 9 1 1 2 -3 2
-9z m316 -12 c4 -7 3 -8 -4 -4 -7 4 -12 2 -12 -5 0 -7 -3 -10 -6 -6 -6 5 3 27
11 27 2 0 7 -5 11 -12z m-3125 -28 c5 0 15 -11 21 -26 6 -14 38 -45 70 -69 63
-47 59 -60 -15 -38 -42 12 -51 19 -67 56 -10 23 -20 56 -22 72 -3 17 -3 24 -1
18 3 -7 9 -13 14 -13z m2709 -34 c0 -3 -4 -8 -10 -11 -5 -3 -10 -1 -10 4 0 6
5 11 10 11 6 0 10 -2 10 -4z m-50 -113 c0 -9 -15 -44 -33 -77 -24 -44 -32 -68
-28 -86 10 -36 43 -37 83 -2 74 65 129 77 174 39 38 -33 37 -88 -5 -160 -27
-47 -30 -58 -20 -85 14 -41 40 -33 103 30 27 27 51 46 54 44 3 -3 0 -12 -7
-20 -7 -8 -8 -16 -4 -18 4 -3 2 -3 -5 -1 -21 5 -38 -19 -35 -50 1 -17 -4 -30
-13 -34 -7 -3 -11 -9 -8 -14 3 -5 10 -6 16 -3 7 4 8 2 4 -4 -4 -7 -2 -12 5
-12 7 0 9 -3 6 -6 -4 -4 -13 -1 -22 6 -12 10 -22 9 -55 -4 -50 -20 -64 -20
-57 -1 4 8 1 17 -5 21 -6 4 -8 3 -4 -4 3 -5 2 -12 -4 -14 -6 -2 -4 -14 5 -30
14 -28 12 -31 -21 -27 -4 0 -12 -10 -18 -23 -9 -17 -19 -22 -38 -20 -14 2 -29
-1 -32 -7 -4 -6 2 -8 14 -6 17 3 19 1 9 -16 -9 -17 -13 -18 -27 -7 -9 7 -13 8
-9 2 7 -12 -54 -44 -94 -48 -35 -4 -68 -14 -122 -38 -39 -18 -50 -19 -60 -8
-10 10 -9 11 3 5 13 -8 13 -7 1 8 -15 19 -26 23 -15 5 5 -8 2 -9 -12 -2 -24
11 -116 12 -171 1 -68 -14 -52 7 43 53 156 78 366 228 501 359 8 7 16 12 18 9
2 -2 -12 -19 -31 -38 -19 -19 -46 -46 -60 -59 -27 -26 -32 -46 -10 -38 11 4
13 -1 10 -20 -6 -30 -25 -51 -42 -45 -6 2 -12 -1 -12 -6 0 -6 -3 -19 -7 -29
-4 -11 5 -6 28 15 18 17 38 32 42 32 5 0 5 5 1 12 -4 7 -3 8 5 4 7 -4 9 -17 6
-29 -6 -21 -6 -22 9 -3 9 11 16 15 16 10 0 -6 -5 -15 -12 -22 -6 -6 -9 -15 -5
-19 11 -10 29 12 33 39 2 13 10 48 19 78 8 30 17 76 20 103 4 54 7 53 -93 23
-30 -8 -57 -15 -60 -14 -4 1 -18 -3 -32 -9 l-25 -10 33 -17 c43 -22 41 -29 -4
-10 -20 8 -33 10 -29 5 3 -7 -3 -11 -14 -11 -18 0 -25 -10 -23 -31 1 -4 -4 -6
-11 -6 -7 0 -23 -1 -37 -2 -20 -1 -22 -3 -10 -11 8 -5 23 -7 32 -4 31 9 41 -6
19 -27 -11 -11 -24 -19 -28 -18 -19 3 -33 -2 -33 -12 0 -6 8 -8 19 -4 11 3 23
0 27 -6 4 -8 3 -9 -4 -5 -6 4 -25 -3 -40 -14 -20 -15 -45 -22 -78 -22 -50 -1
-84 -12 -84 -28 0 -5 -11 -21 -25 -36 -14 -15 -25 -31 -25 -37 0 -13 -26 -33
-75 -58 l-40 -20 25 21 c14 11 42 34 63 51 20 16 37 36 37 44 0 8 8 18 18 24
13 8 14 12 5 22 -10 10 -26 6 -75 -15 -35 -15 -85 -37 -113 -49 -27 -11 -79
-44 -115 -72 l-65 -51 -45 22 c-25 13 -67 25 -94 28 -69 6 -84 26 -21 26 63 1
315 55 295 64 -43 18 -154 5 -249 -28 -51 -19 -81 -20 -81 -5 0 5 -5 7 -12 3
-7 -4 -8 -3 -4 4 4 7 16 12 27 12 11 0 29 5 41 11 11 6 22 8 25 5 3 -3 -5 -10
-18 -15 -19 -8 -20 -10 -6 -10 33 -1 75 31 90 69 13 34 18 37 43 33 21 -3 25
-2 15 5 -11 8 -9 11 8 17 11 3 26 3 32 -1 8 -5 9 -3 4 6 -6 10 -3 12 13 8 12
-3 22 -2 24 2 2 5 17 10 33 12 17 2 32 6 35 9 14 16 155 75 200 84 12 2 30 7
39 10 11 3 24 -2 32 -12 9 -11 10 -14 2 -9 -7 4 -19 4 -25 -1 -9 -5 -3 -9 17
-13 l30 -5 -22 -19 c-12 -11 -19 -24 -17 -30 6 -15 -93 -69 -109 -59 -19 12
-47 14 -47 4 0 -5 8 -11 18 -13 20 -5 -49 -38 -79 -38 -11 0 -19 -4 -19 -10 0
-13 -3 -13 76 11 38 12 77 28 88 38 10 9 20 15 22 14 13 -9 35 1 71 32 22 19
43 32 46 29 3 -3 8 0 13 7 5 8 3 10 -6 4 -8 -5 -11 -3 -8 6 3 8 10 13 15 12 9
-2 11 32 3 47 -2 3 -3 22 -4 43 -1 26 3 36 12 32 9 -3 10 0 3 13 -9 17 -5 18
37 18 53 -1 105 28 96 54 -3 8 -9 21 -12 29 -3 8 -1 12 4 8 6 -3 11 3 11 14 2
18 0 19 -15 7 -15 -12 -16 -11 -4 4 8 10 20 14 29 11 10 -4 14 -2 10 4 -7 11
38 55 47 46 6 -6 10 12 7 30 0 4 4 7 9 7 6 0 10 -7 10 -17z m-2479 -130 c12
-25 37 -65 55 -89 19 -24 29 -44 24 -44 -6 0 -10 -5 -10 -11 0 -6 7 -8 18 -4
13 5 14 3 6 -5 -9 -9 -17 -9 -32 -1 -32 17 -37 13 -11 -9 13 -10 19 -19 14
-20 -6 0 -31 20 -55 45 -44 45 -45 59 -2 29 20 -14 22 -14 22 0 0 9 -5 16 -11
16 -6 0 -8 7 -5 16 3 8 2 12 -4 9 -5 -3 -12 6 -16 20 -3 14 -11 25 -18 25 -17
0 -37 37 -30 55 5 11 0 18 -16 22 -15 4 -18 8 -9 14 20 12 56 -19 80 -68z
m2349 -13 c0 -14 -11 -26 -32 -35 -44 -18 -48 -10 -13 25 36 35 45 37 45 10z
m-123 -122 c-1 -19 -8 -20 -47 -8 l-25 8 28 1 c16 1 26 5 23 9 -3 5 1 9 9 9 7
0 13 -9 12 -19z m673 -25 c0 -10 -4 -14 -8 -8 -4 6 -11 13 -16 18 -5 4 -2 7 7
7 10 0 17 -8 17 -17z m-2753 -30 c-3 -2 -16 -1 -29 3 l-23 8 25 6 c23 6 39 -4
27 -17z m2727 12 c6 -16 -3 -19 -29 -9 -13 5 -14 8 -3 15 19 12 25 11 32 -6z
m-454 -15 c-13 -9 -13 -11 0 -21 12 -8 10 -9 -7 -4 -18 5 -23 2 -23 -12 0 -15
-2 -16 -10 -3 -6 9 -5 17 3 22 7 4 8 8 2 8 -16 0 18 20 35 20 13 0 13 -1 0
-10z m445 -20 c8 -13 -5 -13 -25 0 -13 8 -13 10 2 10 9 0 20 -4 23 -10z m-73
-35 c6 -27 1 -30 -22 -15 -9 6 -11 10 -3 10 7 0 10 7 7 15 -4 8 -2 15 4 15 5
0 12 -11 14 -25z m51 11 c9 5 9 4 0 -6 -13 -15 -37 -4 -26 13 5 8 8 8 11 -1 2
-7 9 -9 15 -6z m-2530 -72 c16 -4 34 -18 42 -35 20 -37 19 -46 -2 -26 -10 8
-20 15 -23 14 -3 -1 -24 13 -45 31 -25 22 -33 32 -20 28 11 -3 33 -8 48 -12z
m-38 -65 c4 -12 2 -26 -3 -31 -7 -7 -12 -3 -17 11 -3 12 -11 21 -16 21 -5 0
-9 5 -9 10 0 19 39 10 45 -11z m124 -54 c33 -27 58 -56 56 -63 -3 -7 -1 -11 4
-8 8 5 30 -15 46 -43 14 -24 -96 42 -142 85 -24 22 -44 40 -46 40 -1 -1 3 4
10 10 10 8 10 13 0 24 -28 30 16 3 72 -45z m2320 46 c2 0 -2 -8 -9 -16 -10
-12 -16 -13 -29 -3 -14 11 -14 11 -4 -2 14 -19 1 -46 -17 -35 -8 5 -11 4 -6
-3 3 -6 2 -13 -4 -17 -16 -10 -12 47 5 65 13 14 41 19 64 11z m-2421 -31 c-7
-11 -17 -20 -22 -20 -5 0 -1 9 9 20 10 11 20 20 22 20 2 0 -2 -9 -9 -20z
m1766 -1 c-27 -30 -105 -82 -99 -66 3 7 21 21 40 31 19 11 42 27 51 37 10 11
19 19 22 19 3 0 -3 -10 -14 -21z m563 -21 c0 -18 -2 -25 -4 -15 -6 23 -30 22
-37 -1 -4 -10 -13 -19 -22 -19 -11 0 -5 11 18 33 18 18 36 33 39 33 3 1 6 -14
6 -31z m-662 -127 c23 -14 37 -16 55 -9 57 22 123 26 167 11 42 -14 43 -16 24
-29 -38 -27 -222 -115 -230 -110 -5 3 -31 6 -59 7 -28 1 -49 5 -47 8 2 4 -14
8 -36 8 -22 1 -48 4 -57 7 -10 4 -29 -4 -44 -18 -25 -20 -176 -64 -201 -58 -5
2 -5 -3 -1 -9 4 -7 23 -9 53 -5 25 3 95 11 154 16 59 6 137 17 172 24 36 7 65
11 65 8 0 -14 -38 -30 -62 -25 -16 3 -28 1 -28 -5 0 -5 9 -8 20 -5 11 3 20 2
20 -2 0 -16 -33 -37 -67 -42 -30 -5 -35 -3 -31 9 4 8 1 15 -6 15 -6 0 -12 -8
-12 -18 0 -10 5 -15 11 -12 5 3 5 0 -2 -7 -10 -11 -22 -10 -66 4 -36 11 -80
16 -131 15 -56 -2 -80 1 -86 10 -4 8 -15 11 -25 7 -14 -5 -15 -9 -5 -21 6 -8
9 -18 6 -23 -3 -5 39 -7 99 -4 135 5 160 -3 81 -29 -32 -10 -62 -17 -66 -14
-4 3 -22 0 -40 -6 -27 -10 -36 -9 -61 10 -16 12 -41 24 -57 27 -18 4 -28 12
-28 24 0 10 5 16 12 13 6 -2 30 15 54 39 33 34 55 46 103 59 34 9 71 19 82 24
l20 7 -20 -14 c-11 -8 -33 -18 -50 -22 -78 -18 -105 -27 -105 -35 0 -5 17 -3
38 5 20 7 47 13 60 14 55 1 112 52 112 101 0 23 5 27 58 38 31 7 71 16 87 21
17 4 32 8 35 9 3 0 19 -7 35 -18z m444 -52 c-12 -10 -47 -31 -78 -47 -31 -15
-59 -30 -62 -35 -3 -4 -14 2 -24 13 -10 11 -13 20 -7 20 7 0 12 -4 12 -10 0
-5 4 -10 10 -10 5 0 8 6 6 13 -1 6 -1 9 1 6 2 -4 13 -5 23 -2 11 3 17 10 13
16 -4 6 0 8 10 4 10 -3 17 -2 17 2 0 5 -6 12 -12 14 -7 3 1 4 17 4 23 -2 29 2
27 14 -2 12 4 15 23 11 15 -2 25 0 25 7 0 7 5 9 10 6 7 -4 2 -14 -11 -26z
m-224 -59 c3 -5 1 -10 -4 -10 -6 0 -11 5 -11 10 0 6 2 10 4 10 3 0 8 -4 11
-10z m-15 -45 c0 -12 -20 -25 -39 -25 -4 0 -7 9 -7 20 0 15 5 19 19 14 14 -4
17 -3 12 6 -5 9 -4 11 3 6 7 -4 12 -13 12 -21z m70 15 c0 -5 -6 -10 -14 -10
-8 0 -18 5 -21 10 -3 6 3 10 14 10 12 0 21 -4 21 -10z m-118 -65 c-3 -5 -7 -4
-10 3 -2 7 -11 12 -20 13 -11 0 -12 2 -4 6 6 2 9 10 6 16 -4 7 2 3 13 -8 11
-11 18 -24 15 -30z m-1237 26 c37 -2 -11 -35 -50 -35 -46 0 -68 20 -35 32 12
5 32 7 44 6 11 -1 30 -3 41 -3z m185 -69 c0 -5 21 -10 47 -11 57 -2 87 -23 55
-40 -11 -6 -37 -12 -58 -14 -22 -3 -29 -2 -16 0 32 6 24 22 -28 49 -34 18 -39
24 -22 24 12 0 22 -4 22 -8z m424 -70 c3 -5 -13 -9 -35 -10 -24 -1 -38 2 -34
8 7 12 62 13 69 2z"/>
<path d="M964 3302 c-19 -6 -45 -33 -138 -141 l-21 -24 23 12 c12 7 46 41 75
76 29 36 60 65 70 65 9 0 17 5 17 10 0 6 -1 10 -2 9 -2 -1 -13 -4 -24 -7z"/>
<path d="M1267 2963 c3 -7 6 -13 8 -13 1 0 7 6 13 13 8 10 6 13 -7 13 -11 0
-17 -6 -14 -13z"/>
<path d="M787 2794 c-15 -8 -32 -12 -37 -9 -5 3 -7 -1 -4 -9 7 -19 -10 -52
-50 -95 l-31 -33 30 15 c34 17 85 78 85 100 0 17 45 31 63 20 7 -4 7 0 -2 10
-16 20 -18 20 -54 1z"/>
<path d="M840 2726 c-12 -33 -12 -36 -1 -36 10 0 25 50 17 58 -3 2 -10 -7 -16
-22z"/>
<path d="M490 2384 c0 -8 5 -12 10 -9 6 4 8 11 5 16 -9 14 -15 11 -15 -7z"/>
<path d="M1065 2700 c-3 -5 -1 -10 4 -10 6 0 11 5 11 10 0 6 -2 10 -4 10 -3 0
-8 -4 -11 -10z"/>
<path d="M415 2110 c3 -5 8 -10 11 -10 2 0 4 5 4 10 0 6 -5 10 -11 10 -5 0 -7
-4 -4 -10z"/>
<path d="M440 1995 c0 -8 2 -15 4 -15 2 0 6 7 10 15 3 8 1 15 -4 15 -6 0 -10
-7 -10 -15z"/>
<path d="M3296 1812 c-3 -5 1 -9 9 -9 8 0 12 4 9 9 -3 4 -7 8 -9 8 -2 0 -6 -4
-9 -8z"/>
<path d="M3326 1191 c-10 -11 -16 -26 -14 -33 3 -8 11 -2 23 15 21 33 15 45
-9 18z"/>
<path d="M2957 1077 c-24 -24 -13 -36 11 -14 10 10 24 17 30 17 6 0 13 3 15 8
10 15 -39 6 -56 -11z"/>
<path d="M3140 1081 c0 -5 6 -11 13 -14 6 -2 9 -8 5 -12 -4 -4 -15 -2 -23 5
-12 10 -18 11 -28 1 -9 -10 -9 -11 3 -9 8 2 0 -2 -18 -10 -20 -9 -31 -20 -28
-28 3 -7 1 -16 -4 -19 -6 -4 -10 -12 -10 -18 0 -8 3 -8 8 -2 11 16 80 65 90
65 5 0 14 6 20 13 8 10 6 16 -9 25 -10 7 -19 8 -19 3z m-40 -61 c-20 -13 -33
-13 -25 0 3 6 14 10 23 10 15 0 15 -2 2 -10z"/>
<path d="M2805 1000 c-3 -6 1 -7 9 -4 18 7 21 14 7 14 -6 0 -13 -4 -16 -10z"/>
<path d="M3178 968 c-14 -14 -15 -18 -4 -18 8 0 17 7 20 16 9 23 4 24 -16 2z"/>
<path d="M3275 970 c3 -5 8 -10 11 -10 2 0 4 5 4 10 0 6 -5 10 -11 10 -5 0 -7
-4 -4 -10z"/>
<path d="M2945 932 c-31 -27 -49 -92 -26 -92 6 0 11 10 11 22 0 12 3 18 7 15
3 -4 17 10 29 31 37 60 29 69 -21 24z m6 -25 c-10 -9 -11 -8 -5 6 3 10 9 15
12 12 3 -3 0 -11 -7 -18z"/>
<path d="M2495 896 c-23 -9 -26 -14 -13 -18 10 -4 23 1 34 13 20 22 19 22 -21
5z"/>
<path d="M3140 880 c0 -5 5 -10 10 -10 6 0 10 5 10 10 0 6 -4 10 -10 10 -5 0
-10 -4 -10 -10z"/>
<path d="M2451 868 c0 -9 -4 -25 -7 -35 -5 -17 -5 -17 6 0 6 10 9 25 7 35 -4
15 -5 15 -6 0z"/>
<path d="M3110 865 c-7 -9 -10 -18 -7 -21 3 -3 10 4 17 15 13 25 8 27 -10 6z"/>
<path d="M2933 795 c0 -8 4 -12 9 -9 4 3 8 9 8 15 0 5 -4 9 -8 9 -5 0 -9 -7
-9 -15z"/>
<path d="M2840 760 c0 -12 26 -19 39 -10 9 5 4 9 -13 12 -14 3 -26 2 -26 -2z"/>
<path d="M2730 741 c0 -5 7 -12 16 -15 14 -5 15 -4 4 9 -14 17 -20 19 -20 6z"/>
<path d="M2690 736 c0 -2 8 -10 18 -17 15 -13 16 -12 3 4 -13 16 -21 21 -21
13z"/>
<path d="M2815 730 c-3 -5 -1 -10 4 -10 6 0 11 5 11 10 0 6 -2 10 -4 10 -3 0
-8 -4 -11 -10z"/>
<path d="M2715 689 c-4 -6 -5 -12 -2 -15 2 -3 7 2 10 11 7 17 1 20 -8 4z"/>
<path d="M2537 573 c3 -7 8 -13 12 -13 4 0 8 6 8 13 0 8 -6 14 -13 14 -7 0
-10 -6 -7 -14z"/>
<path d="M2220 485 c7 -8 20 -15 29 -15 13 1 13 3 -3 15 -26 19 -42 19 -26 0z"/>
<path d="M1810 488 c0 -19 8 -22 34 -12 9 3 13 11 10 16 -4 6 -10 5 -15 -3 -8
-12 -11 -11 -19 1 -8 13 -10 12 -10 -2z"/>
<path d="M2570 3736 c0 -2 23 -12 51 -21 44 -15 53 -15 65 -3 12 11 8 13 -29
13 -23 0 -52 4 -64 8 -13 5 -23 6 -23 3z"/>
<path d="M1615 3676 c-49 -22 -165 -93 -165 -100 0 -9 120 3 152 14 28 10 45
11 82 1 56 -14 196 -5 196 13 0 19 -14 32 -50 52 -19 10 -37 19 -40 19 -3 1
-23 7 -45 13 -56 17 -73 15 -130 -12z"/>
<path d="M720 3677 c0 -2 6 -10 14 -16 11 -9 16 -9 22 1 4 7 4 10 -1 6 -4 -4
-14 -3 -22 3 -7 6 -13 9 -13 6z"/>
<path d="M2670 3663 c0 -11 25 -49 39 -61 9 -7 42 -25 74 -39 35 -15 56 -31
53 -38 -9 -24 34 -74 83 -99 27 -14 52 -30 56 -36 11 -17 25 -11 25 10 0 41
-92 180 -134 202 -27 15 -196 67 -196 61z"/>
<path d="M3070 3630 c-27 -5 -17 -8 48 -14 74 -7 104 -4 91 8 -8 7 -105 11
-139 6z"/>
<path d="M2934 3598 c10 -7 46 -31 80 -53 99 -66 127 -87 199 -149 82 -71 89
-60 10 15 -32 30 -68 67 -80 82 -13 15 -29 27 -37 27 -8 0 -28 16 -43 35 -19
22 -40 36 -59 39 -16 2 -42 7 -59 10 -27 6 -28 5 -11 -6z"/>
<path d="M3194 3595 c-18 -13 -18 -14 4 -8 12 3 25 9 28 14 8 14 -10 11 -32
-6z"/>
<path d="M1580 3574 c-19 -7 -45 -13 -57 -13 -13 -1 -23 -5 -23 -10 0 -10 82
4 110 19 11 6 32 8 47 4 22 -4 25 -3 13 5 -19 14 -46 12 -90 -5z"/>
<path d="M1170 3570 c0 -6 4 -9 9 -6 5 4 12 1 14 -4 3 -6 4 -5 3 2 -3 15 -26
23 -26 8z"/>
<path d="M1817 3563 c5 -15 3 -16 -8 -5 -19 17 -46 15 -58 -5 -8 -13 -10 -14
-11 -4 0 8 -3 12 -6 8 -3 -3 -3 -11 1 -17 5 -8 13 -6 26 6 11 9 22 14 27 9 4
-4 1 -10 -6 -12 -6 -3 -10 -9 -6 -14 3 -5 -2 -9 -10 -9 -8 0 -18 -5 -22 -12
-5 -8 0 -9 14 -6 23 6 31 -7 10 -15 -7 -2 -10 -7 -7 -11 8 -9 55 39 75 77 14
25 13 27 -5 27 -15 0 -19 -5 -14 -17z"/>
<path d="M3215 3570 c27 -12 43 -12 25 0 -8 5 -22 9 -30 9 -10 0 -8 -3 5 -9z"/>
<path d="M2760 3550 c19 -11 40 -19 45 -19 6 0 -6 8 -25 19 -19 11 -39 19 -45
19 -5 0 6 -8 25 -19z"/>
<path d="M1605 3551 c-11 -5 -41 -11 -68 -15 -26 -4 -45 -11 -42 -17 6 -9 -7
-12 -65 -13 -27 -1 -35 -5 -34 -18 1 -10 -5 -18 -14 -18 -11 0 -13 -3 -6 -10
17 -17 46 -1 39 21 -4 11 -2 19 5 19 6 0 9 -4 6 -9 -9 -14 57 -19 79 -6 11 7
50 23 88 36 37 12 67 26 67 31 0 10 -28 9 -55 -1z"/>
<path d="M1679 3536 c-7 -14 -21 -27 -33 -30 -25 -6 -106 -73 -106 -87 0 -5
18 4 40 20 21 15 53 34 70 41 18 7 33 22 36 36 6 24 24 34 24 13 0 -15 -46
-55 -105 -92 -27 -18 -51 -40 -53 -50 -3 -16 -2 -17 31 -1 21 10 33 22 30 30
-3 8 2 11 13 10 10 -2 26 7 36 18 12 15 20 17 25 10 6 -9 12 -7 23 4 13 14 12
15 -3 9 -25 -9 -21 6 9 32 25 21 25 23 8 42 -23 25 -32 24 -45 -5z"/>
<path d="M1965 3540 c3 -5 10 -10 16 -10 5 0 9 5 9 10 0 6 -7 10 -16 10 -8 0
-12 -4 -9 -10z"/>
<path d="M1465 3530 c3 -5 8 -10 11 -10 2 0 4 5 4 10 0 6 -5 10 -11 10 -5 0
-7 -4 -4 -10z"/>
<path d="M1340 3513 c0 -11 5 -11 20 -3 11 6 20 12 20 13 0 2 -9 3 -20 3 -11
0 -20 -6 -20 -13z"/>
<path d="M1897 3506 c4 -5 0 -7 -8 -4 -20 8 -59 -9 -59 -26 0 -7 -12 -17 -27
-21 -16 -4 -23 -9 -16 -12 6 -2 26 3 43 12 20 10 29 12 25 5 -5 -8 -3 -11 6
-8 8 3 13 10 12 15 -1 5 24 10 55 10 31 0 77 3 102 5 25 2 56 5 70 6 16 1 21
5 14 12 -13 13 -225 19 -217 6z"/>
<path d="M1181 3505 c1 -19 18 -51 18 -35 0 8 -4 22 -9 30 -5 8 -9 11 -9 5z"/>
<path d="M1205 3500 c3 -5 8 -10 11 -10 2 0 4 5 4 10 0 6 -5 10 -11 10 -5 0
-7 -4 -4 -10z"/>
<path d="M1540 3487 c-77 -42 -220 -133 -264 -169 -25 -21 -26 -25 -12 -37 22
-18 50 -6 43 20 -4 16 -2 19 13 14 10 -3 21 -1 25 4 3 7 0 8 -9 5 -9 -3 -16
-2 -16 4 0 19 27 20 38 1 7 -10 17 -19 23 -19 8 0 7 5 -1 15 -15 18 -10 19 27
3 45 -18 60 -19 73 -3 12 15 0 22 -14 8 -13 -13 -35 -11 -48 4 -15 18 -20 45
-7 37 5 -3 9 -1 9 5 0 5 16 22 35 37 30 23 37 25 53 13 9 -7 14 -10 10 -5 -4
5 0 15 8 23 8 8 12 18 9 23 -3 4 5 6 17 2 13 -3 19 -1 15 6 -4 5 -1 13 5 15 7
3 9 6 3 6 -5 1 -21 -5 -35 -12z m-245 -187 c-3 -5 -11 -10 -16 -10 -6 0 -7 5
-4 10 3 6 11 10 16 10 6 0 7 -4 4 -10z"/>
<path d="M2630 3474 l-25 -15 33 5 c20 4 52 -2 85 -14 43 -17 56 -18 84 -8 40
15 44 30 6 22 -16 -3 -48 2 -72 10 -54 20 -79 20 -111 0z"/>
<path d="M1412 3450 c-25 -15 -37 -18 -47 -10 -9 7 -16 5 -26 -7 -13 -16 -12
-17 3 -5 12 10 18 10 23 1 4 -6 1 -16 -6 -21 -19 -13 -3 -7 53 20 48 23 69 42
46 42 -7 0 -28 -9 -46 -20z"/>
<path d="M3380 3460 c0 -5 5 -10 10 -10 6 0 10 5 10 10 0 6 -4 10 -10 10 -5 0
-10 -4 -10 -10z"/>
<path d="M2060 3443 c-45 -8 -49 -26 -5 -19 22 3 46 6 53 6 6 0 12 5 12 10 0
10 -15 11 -60 3z"/>
<path d="M1306 3417 c3 -10 9 -15 12 -12 3 3 0 11 -7 18 -10 9 -11 8 -5 -6z"/>
<path d="M3346 3418 c-9 -20 16 -73 39 -82 9 -3 26 -6 38 -5 17 1 14 3 -9 10
-39 11 -51 25 -56 64 -3 23 -6 26 -12 13z"/>
<path d="M1474 3408 c-4 -6 -3 -8 4 -4 5 3 13 0 15 -6 3 -8 6 -6 6 5 1 19 -14
23 -25 5z"/>
<path d="M3045 3399 c-21 -13 -35 -29 -35 -42 0 -4 13 2 29 14 39 29 84 21
154 -25 53 -35 97 -47 97 -25 0 6 -7 8 -16 5 -9 -3 -38 10 -73 35 -62 44 -122
58 -156 38z"/>
<path d="M3380 3382 c6 -13 14 -21 18 -18 3 4 -2 14 -12 24 -18 16 -18 16 -6
-6z"/>
<path d="M3320 3381 c0 -21 13 -42 34 -53 20 -11 20 -10 4 9 -10 11 -18 25
-18 31 0 6 -4 14 -10 17 -5 3 -10 2 -10 -4z"/>
<path d="M1160 3350 c-13 -8 -12 -10 3 -10 9 0 17 5 17 10 0 12 -1 12 -20 0z"/>
<path d="M3475 3340 c4 -6 11 -8 16 -5 14 9 11 15 -7 15 -8 0 -12 -5 -9 -10z"/>
<path d="M1142 3320 c7 -11 17 -20 22 -20 5 0 1 9 -9 20 -10 11 -20 20 -22 20
-2 0 2 -9 9 -20z"/>
<path d="M759 3313 c-13 -16 -12 -17 4 -4 9 7 17 15 17 17 0 8 -8 3 -21 -13z"/>
<path d="M3020 3306 c0 -9 5 -16 10 -16 6 0 10 4 10 9 0 6 -4 13 -10 16 -5 3
-10 -1 -10 -9z"/>
<path d="M1120 3264 c0 -8 5 -12 10 -9 6 3 10 10 10 16 0 5 -4 9 -10 9 -5 0
-10 -7 -10 -16z"/>
<path d="M1205 3254 l-30 -26 33 16 c17 9 32 21 32 26 0 13 -1 13 -35 -16z"/>
<path d="M1380 3259 c0 -5 5 -7 10 -4 6 3 10 8 10 11 0 2 -4 4 -10 4 -5 0 -10
-5 -10 -11z"/>
<path d="M1308 3253 c6 -2 18 -2 25 0 6 3 1 5 -13 5 -14 0 -19 -2 -12 -5z"/>
<path d="M2195 3149 c-66 -43 -149 -96 -185 -116 -145 -83 -200 -123 -200
-146 0 -38 19 -47 98 -47 126 0 116 33 108 -368 -9 -409 -8 -405 -100 -463
-100 -63 -98 -61 -91 -92 l7 -27 303 0 c166 0 317 3 334 6 43 9 44 48 0 72
-56 31 -81 55 -100 96 -17 38 -19 77 -19 597 0 498 -2 557 -16 563 -9 3 -16 6
-17 5 -1 0 -56 -36 -122 -80z m135 -494 c1 -531 2 -551 21 -592 12 -24 39 -59
62 -79 l42 -36 -35 17 c-60 29 -88 64 -100 119 -10 50 -20 727 -10 721 3 -2 5
77 5 176 0 98 -3 179 -6 179 -3 0 -23 -31 -44 -70 -21 -38 -47 -79 -57 -90
-10 -11 -16 -20 -12 -20 3 0 2 -6 -4 -13 -7 -8 -10 -160 -8 -476 2 -390 5
-464 17 -471 40 -22 227 -81 247 -77 12 2 25 0 28 -4 3 -5 2 -9 -3 -9 -71 -1
-591 -1 -600 -1 -24 2 -13 16 30 39 81 44 137 111 137 164 0 15 3 29 8 32 13
8 9 683 -5 697 -8 8 -44 12 -104 11 -50 0 -88 3 -83 7 14 13 105 41 131 41 13
0 23 5 23 10 0 6 11 10 25 10 15 0 39 7 55 15 31 16 41 29 15 19 -8 -4 -15 -1
-15 5 0 6 12 11 28 11 20 0 23 3 12 9 -8 6 -18 7 -22 5 -4 -3 -8 -3 -8 1 0 3
10 10 23 15 14 6 16 9 6 9 -9 1 -69 -26 -133 -60 -132 -68 -168 -73 -52 -7 42
24 145 89 229 144 83 56 153 101 154 100 1 -1 3 -249 3 -551z m-255 305 c-3
-5 -12 -10 -18 -10 -7 0 -6 4 3 10 19 12 23 12 15 0z"/>
<path d="M2155 2973 c-31 -8 -36 -18 -10 -19 13 -1 26 4 29 12 3 8 4 13 3 13
-1 -1 -11 -3 -22 -6z"/>
<path d="M2090 2023 c-14 -2 -32 -7 -40 -10 -8 -3 -20 -5 -26 -4 -15 2 -137
-59 -131 -66 6 -6 95 25 115 40 6 5 12 7 12 4 0 -3 24 1 53 10 28 9 58 16 65
16 6 0 12 4 12 9 0 8 -15 9 -60 1z"/>
<path d="M1153 3200 c-3 -11 -13 -20 -23 -20 -9 0 -25 -9 -35 -20 -22 -24 -10
-25 29 -2 25 15 55 62 40 62 -3 0 -8 -9 -11 -20z"/>
<path d="M1415 3200 c3 -5 11 -10 16 -10 6 0 7 5 4 10 -3 6 -11 10 -16 10 -6
0 -7 -4 -4 -10z"/>
<path d="M3553 3118 c2 -7 10 -13 17 -13 8 0 32 -28 54 -62 23 -34 45 -62 49
-63 9 0 -47 105 -71 133 -17 20 -56 23 -49 5z"/>
<path d="M3480 3116 c0 -2 7 -7 16 -10 8 -3 12 -2 9 4 -6 10 -25 14 -25 6z"/>
<path d="M3485 3072 c0 -9 5 -23 9 -30 4 -7 5 -19 2 -27 -3 -8 0 -17 6 -21 7
-5 8 -2 3 6 -6 10 -4 12 9 7 15 -6 17 -4 11 10 -4 10 -12 30 -17 46 -11 30
-25 36 -23 9z"/>
<path d="M3674 3079 c-3 -6 -2 -15 3 -20 5 -5 9 -1 10 11 2 22 -2 25 -13 9z"/>
<path d="M3780 2884 c0 -7 9 -22 20 -35 10 -13 19 -19 20 -13 0 7 -9 22 -20
35 -10 13 -19 19 -20 13z"/>
<path d="M3709 2867 c7 -10 21 -17 30 -17 9 0 23 -6 31 -12 12 -11 12 -10 0 7
-8 11 -14 21 -15 22 0 1 -14 5 -30 9 -27 7 -29 6 -16 -9z"/>
<path d="M3723 2638 c22 -99 38 -188 47 -275 8 -65 16 -100 22 -96 7 3 8 34 4
82 -6 83 10 176 19 106 13 -99 19 -154 18 -178 0 -16 4 -26 11 -24 12 4 13 31
3 135 -6 65 -10 76 -37 99 -17 14 -28 28 -25 31 3 4 10 0 15 -8 8 -12 10 -10
10 8 0 12 -6 25 -14 28 -7 3 -26 30 -41 60 -29 57 -41 69 -32 32z"/>
<path d="M3904 2555 c2 -11 7 -33 10 -48 6 -25 5 -27 -13 -18 -19 11 -51 6
-51 -8 0 -3 10 -7 23 -7 12 -1 33 -5 46 -9 22 -8 23 -6 16 26 -4 19 -14 45
-22 59 -10 19 -13 20 -9 5z"/>
<path d="M3579 2473 c-20 -8 -42 -26 -48 -39 -19 -43 -12 -46 23 -10 18 20 43
36 54 36 36 0 87 -61 105 -127 15 -51 49 -103 69 -103 11 0 38 31 38 42 0 6
-9 3 -19 -6 -18 -17 -20 -17 -39 2 -10 10 -22 38 -26 61 -9 56 -39 114 -72
140 -31 24 -36 24 -85 4z"/>
<path d="M945 2400 c-18 -8 -17 -9 7 -9 15 -1 30 4 33 9 7 12 -12 12 -40 0z"/>
<path d="M3580 2401 c0 -5 -7 -8 -16 -7 -11 0 -18 -8 -21 -24 -6 -41 -8 -150
-3 -150 10 0 54 110 51 128 -1 6 2 12 7 12 5 0 7 11 4 25 -4 23 -22 36 -22 16z"/>
<path d="M3340 2285 c-9 -10 -9 -15 -1 -15 6 0 11 -5 11 -11 0 -5 -4 -7 -10
-4 -5 3 -10 1 -10 -4 0 -14 27 -14 36 0 3 6 1 15 -6 19 -7 4 -9 13 -6 19 10
16 0 13 -14 -4z"/>
<path d="M3590 2270 c0 -5 5 -10 10 -10 6 0 10 5 10 10 0 6 -4 10 -10 10 -5 0
-10 -4 -10 -10z"/>
<path d="M1036 2199 c-33 -16 -70 -29 -83 -29 -13 0 -23 -4 -23 -10 0 -29 137
16 170 55 18 21 3 18 -64 -16z"/>
<path d="M3815 2220 c-3 -6 1 -7 9 -4 18 7 21 14 7 14 -6 0 -13 -4 -16 -10z"/>
<path d="M1097 2193 c-6 -11 -38 -118 -35 -118 2 0 -9 -16 -24 -35 -31 -41
-52 -90 -38 -90 5 0 15 10 21 23 7 12 23 35 35 50 13 16 24 39 24 51 0 12 7
44 16 70 14 41 15 72 1 49z"/>
<path d="M3597 2179 c7 -7 15 -10 18 -7 3 3 -2 9 -12 12 -14 6 -15 5 -6 -5z"/>
<path d="M3811 2174 c0 -11 3 -14 6 -6 3 7 2 16 -1 19 -3 4 -6 -2 -5 -13z"/>
<path d="M3870 2176 c0 -7 8 -20 17 -27 15 -12 16 -12 10 4 -4 10 -7 23 -7 28
0 5 -4 9 -10 9 -5 0 -10 -6 -10 -14z"/>
<path d="M3415 2110 c-8 -13 15 -24 27 -12 6 6 4 11 -6 15 -8 3 -18 2 -21 -3z"/>
<path d="M3460 2086 c0 -11 -5 -16 -13 -13 -7 3 -21 -1 -30 -8 -15 -11 -15
-14 -3 -24 11 -9 16 -9 22 0 5 8 3 9 -6 4 -9 -5 -11 -4 -6 4 4 6 12 9 17 6 5
-4 16 1 25 10 13 12 14 19 5 28 -8 8 -11 6 -11 -7z"/>
<path d="M1010 1935 c0 -3 7 -14 16 -23 15 -14 16 -14 13 3 -4 17 -29 35 -29
20z"/>
<path d="M3760 1880 c0 -5 5 -10 10 -10 6 0 10 5 10 10 0 6 -4 10 -10 10 -5 0
-10 -4 -10 -10z"/>
<path d="M1060 1792 c0 -19 54 -126 58 -114 2 6 -10 37 -27 69 -16 32 -30 52
-31 45z"/>
<path d="M3430 1739 c0 -5 5 -7 10 -4 6 3 10 8 10 11 0 2 -4 4 -10 4 -5 0 -10
-5 -10 -11z"/>
<path d="M4160 1726 c0 -2 7 -7 16 -10 8 -3 12 -2 9 4 -6 10 -25 14 -25 6z"/>
<path d="M2109 1697 c-66 -44 -90 -147 -49 -214 35 -58 129 -90 183 -62 86 44
119 137 77 218 -39 78 -140 106 -211 58z m154 -13 c42 -28 57 -57 57 -110 0
-120 -148 -173 -225 -82 -16 18 -24 39 -22 50 3 10 1 16 -4 12 -10 -6 -12 20
-3 53 4 13 11 20 17 16 6 -3 7 -1 3 6 -16 25 59 81 109 81 17 0 47 -12 68 -26z"/>
<path d="M2138 1680 c-84 -66 -43 -220 59 -220 34 0 83 36 83 60 0 6 4 9 8 6
4 -2 5 22 2 55 -4 45 -12 65 -31 84 -36 36 -87 43 -121 15z m92 -20 c21 -11
40 -60 40 -102 0 -35 -48 -88 -79 -88 -11 0 -33 11 -48 24 -24 21 -28 31 -28
79 0 40 5 61 19 76 20 22 65 28 96 11z"/>
<path d="M2419 1692 c-14 -37 -11 -44 24 -42 62 4 60 8 54 -87 -3 -49 -8 -98
-12 -110 -7 -22 -5 -23 44 -23 28 0 51 4 51 9 0 10 -24 21 -48 21 -15 0 -17
14 -17 112 l0 113 -37 -3 c-21 -2 -38 1 -38 7 0 6 37 10 95 10 52 0 95 -5 95
-10 0 -5 5 -9 10 -9 8 0 8 6 1 18 -8 14 -25 17 -111 17 -98 0 -103 -1 -111
-23z"/>
<path d="M2758 1668 c64 -85 74 -113 70 -182 l-3 -61 45 0 45 1 -3 39 c-2 22
-4 42 -4 45 -2 33 10 60 57 124 47 66 51 75 27 61 -15 -9 -45 -43 -66 -76 -34
-53 -38 -64 -34 -114 3 -51 1 -55 -19 -55 -20 0 -21 4 -16 53 5 49 3 57 -36
117 -23 35 -47 68 -54 72 -8 5 -5 8 8 8 15 0 25 -10 33 -32 6 -18 22 -46 35
-62 l23 -28 28 42 c15 23 28 50 29 61 1 14 9 19 34 19 17 0 35 5 38 10 4 6
-13 10 -44 10 -48 0 -51 -1 -51 -26 0 -27 -29 -84 -42 -84 -10 0 -30 40 -38
75 -5 28 -9 30 -54 33 l-48 3 40 -53z"/>
<path d="M1391 1696 c-7 -8 -11 -25 -9 -38 3 -20 8 -22 55 -19 63 3 64 6 -15
-122 -30 -49 -52 -90 -50 -91 1 -2 55 -6 119 -9 l116 -5 10 31 c11 37 6 60
-10 50 -6 -3 -38 -12 -71 -19 l-61 -12 53 -1 c29 0 62 4 73 10 18 9 19 8 9 -8
-10 -16 -24 -18 -111 -15 -84 3 -98 6 -89 17 6 8 18 11 26 8 8 -3 14 0 14 7 0
6 -4 8 -10 5 -19 -12 -10 7 45 95 l54 89 -27 9 c-22 8 -17 9 24 5 33 -4 54 -1
58 6 5 8 -16 11 -71 11 -43 0 -87 3 -99 6 -12 3 -26 -1 -33 -10z m69 -16 c-20
-13 -50 -13 -50 0 0 6 15 10 33 10 24 0 28 -3 17 -10z"/>
<path d="M1767 1648 c5 -59 4 -64 -18 -73 -13 -6 -23 -18 -23 -27 1 -10 2 -25
3 -33 1 -9 10 -14 24 -12 20 2 22 -2 22 -43 l0 -45 82 0 c88 0 93 3 93 52 0
23 -3 24 -32 17 -18 -3 -42 -10 -53 -15 -16 -6 -13 -8 16 -8 19 -1 40 4 46 10
9 9 11 7 7 -7 -4 -17 -13 -19 -69 -16 -36 2 -65 8 -65 13 0 5 5 9 10 9 6 0 10
5 10 11 0 5 -4 7 -10 4 -5 -3 -10 3 -10 14 0 10 5 21 12 23 6 2 9 12 5 21 -5
13 -12 14 -36 7 -36 -10 -42 1 -8 15 19 9 22 17 22 68 0 52 2 57 22 57 16 0
20 -5 16 -19 -3 -10 0 -22 6 -25 7 -5 11 5 11 28 0 36 0 36 -44 36 l-44 0 5
-62z"/>
<path d="M1006 1686 c3 -9 11 -16 16 -16 13 0 5 23 -10 28 -7 2 -10 -2 -6 -12z"/>
<path d="M2562 1673 c-11 -27 -8 -191 3 -202 7 -7 9 21 7 84 -4 104 4 119 54
97 28 -14 32 -2 6 21 -24 22 -61 22 -70 0z"/>
<path d="M3432 1678 c2 -6 10 -14 16 -16 7 -2 10 2 6 12 -7 18 -28 22 -22 4z"/>
<path d="M749 1659 c-8 -17 -8 -36 1 -80 7 -32 10 -75 7 -94 -7 -44 7 -37 23
11 10 28 10 49 0 94 -14 66 -10 80 23 73 18 -4 19 -3 7 6 -24 17 -48 13 -61
-10z"/>
<path d="M1585 1662 c-11 -9 -28 -30 -38 -45 -24 -37 -34 -28 -12 10 l17 28
-21 -24 c-12 -13 -19 -31 -16 -39 3 -8 -6 -35 -20 -59 -28 -51 -29 -53 -16
-53 5 0 21 21 36 48 16 26 42 65 60 87 39 50 48 65 38 65 -4 -1 -17 -8 -28
-18z"/>
<path d="M1880 1650 c-19 -16 -36 -33 -36 -39 -1 -6 -2 -12 -3 -13 -8 -10 -8
-60 -1 -89 8 -33 8 -33 9 13 1 50 24 78 64 78 15 0 17 5 11 23 -4 12 -7 30 -6
40 1 21 4 22 -38 -13z m30 -8 c0 -5 -11 -14 -25 -20 -39 -18 -44 -14 -10 7 36
23 35 23 35 13z"/>
<path d="M1045 1636 c1 -13 9 -36 19 -51 10 -15 15 -29 12 -32 -3 -3 4 -14 15
-24 12 -10 18 -22 15 -27 -3 -5 3 -17 14 -27 19 -18 20 -17 20 4 0 12 -4 20
-9 17 -5 -4 -7 3 -4 14 3 11 0 20 -6 20 -6 0 -11 8 -11 19 0 10 -7 24 -15 31
-8 7 -17 27 -21 46 -7 39 -30 47 -29 10z"/>
<path d="M3270 1610 c0 -6 5 -10 10 -10 6 0 10 -5 10 -11 0 -5 -5 -7 -12 -3
-7 4 -8 3 -4 -4 4 -6 13 -9 21 -5 27 10 15 -18 -12 -30 -16 -7 -30 -21 -31
-32 -2 -11 -8 -23 -14 -26 -5 -4 -3 -9 6 -12 9 -4 16 -14 16 -24 1 -38 40 -67
56 -42 8 14 15 148 8 170 -5 18 -54 44 -54 29z m20 -95 c0 -8 -4 -15 -10 -15
-5 0 -7 7 -4 15 4 8 8 15 10 15 2 0 4 -7 4 -15z m-10 -35 c0 -5 -2 -10 -4 -10
-3 0 -8 5 -11 10 -3 6 -1 10 4 10 6 0 11 -4 11 -10z"/>
<path d="M1486 1564 c-9 -24 -2 -26 12 -4 7 11 8 20 3 20 -5 0 -12 -7 -15 -16z"/>
<path d="M1161 1487 c-11 -24 -25 -47 -33 -50 -7 -2 -9 -8 -5 -13 13 -14 41
11 51 47 13 47 15 48 43 14 14 -16 20 -21 15 -10 -6 11 -19 29 -31 39 -20 19
-21 18 -40 -27z"/>
<path d="M3665 1510 c-3 -5 -1 -10 4 -10 6 0 11 5 11 10 0 6 -2 10 -4 10 -3 0
-8 -4 -11 -10z"/>
<path d="M3490 1476 c0 -13 -5 -27 -10 -29 -6 -3 -5 -4 2 -3 14 3 31 56 17 56
-5 0 -9 -11 -9 -24z"/>
<path d="M250 1461 c0 -13 28 -71 35 -71 4 0 -24 71 -31 79 -2 2 -4 -1 -4 -8z"/>
<path d="M3520 1445 c0 -8 -7 -18 -15 -21 -8 -4 -15 -11 -15 -16 0 -7 5 -6 13
1 8 6 16 8 19 6 3 -3 8 3 11 15 3 11 1 23 -4 26 -5 3 -9 -2 -9 -11z"/>
<path d="M1240 1426 c0 -17 14 -39 43 -65 33 -31 39 -42 30 -52 -10 -10 -17
-9 -35 7 -17 14 -19 15 -9 2 7 -9 10 -22 6 -28 -10 -16 31 -12 45 5 19 23 27
19 84 -35 74 -70 79 -63 7 10 -33 33 -66 60 -74 60 -21 0 -77 64 -77 87 0 12
-4 25 -10 28 -6 3 -10 -5 -10 -19z"/>
<path d="M3590 1435 c0 -8 -15 -21 -32 -30 -18 -9 -44 -25 -57 -35 -20 -18
-22 -22 -10 -38 11 -14 9 -13 -9 2 -12 11 -22 14 -22 8 0 -18 33 -31 52 -21
23 13 23 4 -2 -31 -11 -15 -17 -30 -13 -34 3 -3 1 -6 -4 -6 -6 0 -13 5 -15 12
-3 8 -13 4 -29 -11 -13 -13 -18 -21 -11 -17 6 4 12 2 12 -3 0 -6 4 -11 10 -11
5 0 7 8 4 18 -5 16 -4 16 9 -1 10 -12 17 -15 22 -7 4 6 13 9 21 6 8 -3 13 -2
13 2 -1 4 -1 18 0 31 1 24 1 24 23 5 20 -18 21 -18 15 -1 -4 11 -3 16 3 12 6
-3 10 -13 10 -21 0 -8 8 -14 18 -14 13 0 14 2 4 9 -9 5 -15 31 -16 69 -1 34 2
58 7 55 5 -3 6 4 3 15 -4 11 -2 23 4 27 13 8 13 25 0 25 -5 0 -10 -7 -10 -15z
m-23 -131 c-3 -3 -12 -4 -19 -1 -8 3 -5 6 6 6 11 1 17 -2 13 -5z"/>
<path d="M3239 1427 c6 -8 8 -17 4 -21 -4 -4 0 -4 10 0 14 5 15 9 6 20 -6 8
-16 14 -21 14 -7 0 -6 -5 1 -13z"/>
<path d="M3676 1404 c4 -10 15 -24 23 -31 20 -15 7 -17 -22 -2 -19 9 -18 7 3
-10 37 -30 49 -2 15 35 -19 21 -24 23 -19 8z"/>
<path d="M302 1336 c12 -25 23 -44 25 -42 5 5 -26 74 -37 81 -6 4 0 -14 12
-39z"/>
<path d="M1395 1321 c-3 -5 -2 -12 3 -15 5 -3 9 1 9 9 0 17 -3 19 -12 6z"/>
<path d="M4017 1317 c-3 -8 1 -14 8 -14 7 0 11 6 8 14 -3 7 -6 13 -8 13 -2 0
-5 -6 -8 -13z"/>
<path d="M3480 1290 c0 -5 5 -10 11 -10 5 0 7 5 4 10 -3 6 -8 10 -11 10 -2 0
-4 -4 -4 -10z"/>
<path d="M845 1260 c9 -16 18 -30 21 -30 2 0 -2 14 -11 30 -9 17 -18 30 -21
30 -2 0 2 -13 11 -30z"/>
<path d="M1340 1256 c0 -10 -6 -13 -17 -10 -19 6 40 -51 70 -67 22 -13 22 -7
-3 21 -11 12 -17 27 -13 33 3 6 1 7 -5 3 -7 -4 -12 -1 -12 8 0 8 -4 18 -10 21
-5 3 -10 -1 -10 -9z"/>
<path d="M3975 1239 c-4 -6 -5 -12 -2 -15 2 -3 7 2 10 11 7 17 1 20 -8 4z"/>
<path d="M1290 1193 c1 -18 134 -113 233 -166 l69 -38 -20 28 c-10 15 -17 34
-15 41 3 7 1 12 -4 11 -12 -3 -65 20 -83 36 -14 12 -168 95 -176 95 -2 0 -4
-3 -4 -7z"/>
<path d="M1485 1189 c-4 -5 -19 -15 -33 -21 -22 -9 -24 -12 -9 -15 10 -3 29 2
42 11 32 21 53 20 100 -5 176 -95 292 -148 310 -143 11 4 17 3 13 -1 -4 -5 0
-14 9 -20 15 -11 14 -12 -9 -10 -15 2 -31 6 -36 9 -6 3 -8 -3 -5 -14 3 -11 11
-20 19 -20 8 0 11 -6 8 -15 -4 -10 0 -15 11 -15 15 0 15 -3 5 -15 -10 -12 -24
-14 -59 -10 -39 5 -43 4 -27 -6 32 -20 101 -17 126 6 26 23 21 50 -20 118 -17
27 -30 50 -30 52 0 13 97 -31 122 -56 30 -29 35 -31 90 -27 55 4 58 3 58 -19
0 -18 -7 -25 -31 -30 -26 -5 -28 -8 -15 -15 25 -14 66 16 66 48 0 36 -27 71
-77 101 -24 14 -42 27 -40 30 2 2 26 -4 53 -13 28 -10 64 -14 87 -11 34 5 44
1 76 -29 21 -18 41 -31 44 -28 3 4 -14 23 -39 44 -40 33 -51 37 -84 33 -22 -3
-59 2 -90 12 -73 24 -87 8 -37 -43 21 -21 34 -42 30 -46 -4 -4 0 -4 10 0 9 3
17 2 17 -4 0 -5 -18 -12 -39 -14 -32 -3 -45 2 -71 25 -17 15 -29 31 -26 35 4
6 -33 13 -94 16 -21 1 -25 -3 -23 -26 1 -17 -3 -28 -11 -28 -22 0 -136 61
-131 70 3 5 0 12 -6 16 -8 4 -9 3 -5 -4 11 -19 2 -15 -104 38 -100 50 -133 59
-145 39z"/>
<path d="M3396 1185 c-3 -8 -1 -15 4 -15 6 0 10 7 10 15 0 8 -2 15 -4 15 -2 0
-6 -7 -10 -15z"/>
<path d="M885 1130 c-3 -5 -1 -10 4 -10 6 0 11 5 11 10 0 6 -2 10 -4 10 -3 0
-8 -4 -11 -10z"/>
<path d="M3580 1068 c-10 -18 -32 -48 -47 -67 -15 -19 -27 -36 -25 -38 1 -2
-10 -15 -25 -29 -16 -15 -9 -12 17 7 24 19 49 34 55 34 5 0 9 11 8 23 -2 13 1
21 7 17 6 -4 7 1 3 11 -4 12 -3 15 5 10 8 -5 10 -1 5 10 -5 13 -3 16 10 11 11
-4 14 -2 10 9 -3 7 0 14 6 14 6 0 11 5 11 10 0 21 -21 9 -40 -22z m-20 -76 c0
-5 -7 -9 -15 -9 -8 0 -12 4 -9 9 3 4 9 8 15 8 5 0 9 -4 9 -8z"/>
<path d="M1846 1073 c-6 -14 -5 -15 5 -6 7 7 10 15 7 18 -3 3 -9 -2 -12 -12z"/>
<path d="M1682 1071 c-13 -8 -6 -41 8 -41 4 0 10 -9 13 -20 3 -11 10 -20 16
-20 15 0 14 8 -7 52 -12 25 -22 34 -30 29z"/>
<path d="M360 1060 c0 -5 5 -10 10 -10 6 0 10 5 10 10 0 6 -4 10 -10 10 -5 0
-10 -4 -10 -10z"/>
<path d="M2025 1060 c3 -5 8 -10 11 -10 2 0 4 5 4 10 0 6 -5 10 -11 10 -5 0
-7 -4 -4 -10z"/>
<path d="M1941 1030 c14 -31 19 -36 19 -24 0 6 -7 19 -16 30 -14 18 -14 18 -3
-6z"/>
<path d="M480 1025 c0 -5 9 -21 20 -35 11 -14 20 -20 20 -15 0 6 -9 21 -20 35
-11 14 -20 21 -20 15z"/>
<path d="M410 1001 c0 -6 4 -13 10 -16 6 -3 7 1 4 9 -7 18 -14 21 -14 7z"/>
<path d="M1082 981 c10 -28 261 -206 331 -234 41 -18 51 -8 12 13 -13 7 -31
28 -40 46 -8 18 -20 36 -25 39 -6 3 -10 17 -10 31 0 13 -5 24 -11 24 -5 0 -7
5 -3 11 5 8 1 8 -14 0 -36 -19 -69 -12 -158 34 -47 25 -84 41 -82 36z"/>
<path d="M1408 962 c-54 -18 -60 -28 -22 -42 14 -6 53 -26 85 -45 32 -19 61
-30 64 -25 4 6 12 10 18 10 7 0 4 -6 -5 -14 -27 -20 -4 -70 43 -91 40 -19 99
-74 96 -90 -1 -5 12 -11 28 -12 17 -1 23 1 14 3 -20 6 -42 51 -33 66 4 6 2 8
-3 5 -6 -4 -16 0 -23 8 -6 7 -34 28 -61 45 -79 51 -60 79 41 58 52 -10 61 -10
91 8 56 33 48 45 -55 92 -82 37 -102 42 -162 41 -38 0 -90 -8 -116 -17z m220
-93 c70 -17 71 -27 2 -15 -33 5 -60 13 -60 18 0 10 2 10 58 -3z m99 -15 c-3
-3 -12 -4 -19 -1 -8 3 -5 6 6 6 11 1 17 -2 13 -5z"/>
<path d="M1741 954 c0 -11 3 -14 6 -6 3 7 2 16 -1 19 -3 4 -6 -2 -5 -13z"/>
<path d="M1986 953 c10 -7 22 -13 26 -13 5 0 3 6 -4 13 -7 8 -19 14 -26 14
-11 0 -10 -4 4 -14z"/>
<path d="M2140 959 c0 -5 5 -7 10 -4 6 3 10 8 10 11 0 2 -4 4 -10 4 -5 0 -10
-5 -10 -11z"/>
<path d="M540 936 c0 -2 8 -10 18 -17 15 -13 16 -12 3 4 -13 16 -21 21 -21 13z"/>
<path d="M2000 919 c0 -5 5 -7 10 -4 6 3 10 8 10 11 0 2 -4 4 -10 4 -5 0 -10
-5 -10 -11z"/>
<path d="M2035 910 c-3 -5 1 -10 10 -10 9 0 13 5 10 10 -3 6 -8 10 -10 10 -2
0 -7 -4 -10 -10z"/>
<path d="M2016 889 c5 -9 2 -10 -10 -6 -13 5 -17 3 -13 -5 3 -10 -15 -13 -75
-11 l-80 2 38 -35 c22 -19 31 -31 22 -27 -10 5 -37 27 -60 48 -23 22 -39 34
-34 28 4 -8 2 -13 -7 -13 -8 0 -22 -9 -32 -20 -24 -26 -76 -35 -131 -21 -25 6
-50 8 -57 4 -12 -7 101 -45 203 -67 157 -34 569 -69 556 -47 -4 6 -13 11 -21
11 -8 0 -20 8 -27 18 -13 17 -153 102 -169 102 -5 0 -18 9 -29 20 -11 11 -20
15 -20 10 0 -6 -14 -3 -31 6 -21 10 -29 11 -23 3z"/>
<path d="M616 848 c10 -14 21 -24 23 -22 3 3 -6 15 -18 27 l-24 22 19 -27z"/>
<path d="M655 800 c3 -5 11 -10 16 -10 6 0 7 5 4 10 -3 6 -11 10 -16 10 -6 0
-7 -4 -4 -10z"/>
<path d="M709 747 c19 -20 39 -37 43 -37 10 0 -25 36 -57 60 -11 8 -4 -3 14
-23z"/>
<path d="M1002 775 c4 -5 2 -15 -4 -24 -10 -13 -10 -14 2 -3 18 15 34 16 24 0
-4 -7 -3 -8 4 -4 17 10 15 14 -10 27 -13 6 -20 8 -16 4z"/>
<path d="M640 763 c0 -6 8 -17 18 -24 16 -13 16 -13 2 6 -8 11 -16 22 -17 24
-2 2 -3 0 -3 -6z"/>
<path d="M1050 746 c0 -2 8 -10 18 -17 15 -13 16 -12 3 4 -13 16 -21 21 -21
13z"/>
<path d="M3200 689 c-22 -18 -22 -19 -3 -10 12 6 25 16 28 21 9 15 3 12 -25
-11z"/>
<path d="M761 697 c2 -1 13 -9 24 -17 19 -14 19 -14 6 3 -7 9 -18 17 -24 17
-6 0 -8 -1 -6 -3z"/>
<path d="M2187 694 c-13 -13 5 -25 19 -13 12 10 17 9 27 -1 9 -10 9 -11 -1 -6
-7 4 -15 1 -18 -9 -4 -10 -14 -14 -28 -10 -18 5 -19 5 -4 -5 20 -13 68 13 68
36 0 14 -50 20 -63 8z"/>
<path d="M1750 654 c0 -8 5 -12 10 -9 6 3 10 10 10 16 0 5 -4 9 -10 9 -5 0
-10 -7 -10 -16z"/>
<path d="M1785 640 c3 -5 8 -10 11 -10 2 0 4 5 4 10 0 6 -5 10 -11 10 -5 0 -7
-4 -4 -10z"/>
<path d="M2142 634 c-8 -9 -22 -12 -35 -8 -21 6 -21 5 2 -12 21 -15 24 -15 33
-1 5 9 16 14 26 11 10 -4 13 -2 7 3 -5 4 -12 11 -15 15 -3 3 -11 -1 -18 -8z"/>
<path d="M1857 619 c6 -6 9 -19 6 -28 -4 -14 -3 -14 6 -1 15 21 14 27 -6 35
-14 5 -15 3 -6 -6z"/>
<path d="M3483 605 c0 -8 4 -12 9 -9 5 3 6 10 3 15 -9 13 -12 11 -12 -6z"/>
<path d="M1990 590 c0 -5 4 -10 9 -10 6 0 13 5 16 10 3 6 -1 10 -9 10 -9 0
-16 -4 -16 -10z"/>
<path d="M2100 592 c0 -7 -15 -12 -32 -13 -32 0 -32 -1 -9 -10 19 -7 28 -6 40
5 8 9 12 19 8 22 -4 4 -7 2 -7 -4z"/>
<path d="M1275 570 c3 -5 11 -10 16 -10 6 0 7 5 4 10 -3 6 -11 10 -16 10 -6 0
-7 -4 -4 -10z"/>
<path d="M2990 569 c0 -5 5 -7 10 -4 6 3 10 8 10 11 0 2 -4 4 -10 4 -5 0 -10
-5 -10 -11z"/>
<path d="M1315 560 c3 -5 11 -10 16 -10 6 0 7 5 4 10 -3 6 -11 10 -16 10 -6 0
-7 -4 -4 -10z"/>
<path d="M1125 530 c3 -5 8 -10 11 -10 2 0 4 5 4 10 0 6 -5 10 -11 10 -5 0 -7
-4 -4 -10z"/>
<path d="M2910 522 c0 -4 9 -8 19 -8 11 0 17 4 15 8 -3 4 -12 8 -20 8 -8 0
-14 -4 -14 -8z"/>
<path d="M936 500 c-13 -4 -16 -9 -9 -13 7 -4 15 -3 18 3 5 8 11 7 21 -1 8 -6
16 -10 19 -8 9 10 -31 26 -49 19z"/>
<path d="M1224 470 c45 -23 46 -23 46 -12 0 8 -58 32 -76 32 -5 -1 9 -10 30
-20z"/>
<path d="M3380 465 c-11 -13 -10 -14 4 -9 9 3 16 10 16 15 0 13 -6 11 -20 -6z"/>
<path d="M1590 440 c6 -11 13 -20 16 -20 2 0 0 9 -6 20 -6 11 -13 20 -16 20
-2 0 0 -9 6 -20z"/>
<path d="M2735 450 c-3 -6 1 -7 9 -4 18 7 21 14 7 14 -6 0 -13 -4 -16 -10z"/>
<path d="M3340 440 c0 -5 5 -10 10 -10 6 0 10 5 10 10 0 6 -4 10 -10 10 -5 0
-10 -4 -10 -10z"/>
<path d="M1657 429 c14 -14 65 -21 57 -8 -3 5 -9 7 -14 4 -5 -3 -11 -1 -15 5
-3 5 -14 10 -23 10 -12 0 -13 -3 -5 -11z"/>
<path d="M3280 402 c-18 -15 -20 -19 -7 -19 10 0 15 3 12 6 -3 3 5 11 17 18
13 7 18 12 12 13 -7 0 -22 -8 -34 -18z"/>
<path d="M2078 373 c7 -3 16 -2 19 1 4 3 -2 6 -13 5 -11 0 -14 -3 -6 -6z"/>
<path d="M1423 353 c9 -2 17 -9 17 -14 0 -5 12 -9 28 -9 15 0 47 -9 71 -20 51
-24 57 -25 39 -7 -14 15 -139 58 -160 56 -7 -1 -5 -3 5 -6z"/>
<path d="M2000 350 c0 -5 5 -10 11 -10 5 0 7 5 4 10 -3 6 -8 10 -11 10 -2 0
-4 -4 -4 -10z"/>
<path d="M2638 183 c-16 -2 -28 -9 -28 -14 0 -10 24 -7 60 9 25 11 17 12 -32
5z"/>
</g>
</svg>
